u2194_ 350 - 40.ufo
<glyph name="exclam" format="1">
  <advance width="180"/>
  <unicode hex="0021"/>
  <outline>
    <contour>
      <point x="90" y="161" type="curve" smooth="yes"/>
      <point x="112" y="161"/>
      <point x="130" y="179"/>
      <point x="130" y="201" type="curve" smooth="yes"/>
      <point x="130" y="801" type="line" smooth="yes"/>
      <point x="130" y="823"/>
      <point x="112" y="841"/>
      <point x="90" y="841" type="curve" smooth="yes"/>
      <point x="68" y="841"/>
      <point x="50" y="823"/>
      <point x="50" y="801" type="curve" smooth="yes"/>
      <point x="50" y="201" type="line" smooth="yes"/>
      <point x="50" y="179"/>
      <point x="68" y="161"/>
    </contour>
    <contour>
      <point x="90" y="58" type="curve" smooth="yes"/>
      <point x="68" y="58"/>
      <point x="50" y="40"/>
      <point x="50" y="18" type="curve" smooth="yes"/>
      <point x="50" y="1" type="line" smooth="yes"/>
      <point x="50" y="-21"/>
      <point x="68" y="-39"/>
      <point x="90" y="-39" type="curve" smooth="yes"/>
      <point x="112" y="-39"/>
      <point x="130" y="-21"/>
      <point x="130" y="1" type="curve" smooth="yes"/>
      <point x="130" y="18" type="line" smooth="yes"/>
      <point x="130" y="40"/>
      <point x="112" y="58"/>
    </contour>
  </outline>
</glyph>
<glyph name="dollar" format="1">
  <advance width="781"/>
  <unicode hex="0024"/>
  <outline>
    <contour>
      <point x="351" y="461" type="line"/>
      <point x="172" y="495" type="line"/>
      <point x="252" y="753" type="line"/>
      <point x="351" y="753" type="line"/>
    </contour>
    <contour>
      <point x="431" y="70" type="line"/>
      <point x="431" y="364" type="line"/>
      <point x="440" y="362" type="line"/>
      <point x="623" y="156" type="line"/>
    </contour>
    <contour>
      <point x="391" y="-41" type="curve" smooth="yes"/>
      <point x="406" y="-41"/>
      <point x="419" y="-32"/>
      <point x="426" y="-20" type="curve"/>
      <point x="705" y="105" type="line" smooth="yes"/>
      <point x="731" y="117"/>
      <point x="738" y="147"/>
      <point x="718" y="168" type="curve" smooth="yes"/>
      <point x="491" y="426" type="line" smooth="yes"/>
      <point x="486" y="431"/>
      <point x="476" y="437"/>
      <point x="468" y="438" type="curve" smooth="yes"/>
      <point x="431" y="445" type="line"/>
      <point x="431" y="752" type="line"/>
      <point x="546" y="751" type="line"/>
      <point x="657" y="577" type="line" smooth="yes"/>
      <point x="669" y="559"/>
      <point x="694" y="554"/>
      <point x="713" y="565" type="curve" smooth="yes"/>
      <point x="731" y="577"/>
      <point x="736" y="602"/>
      <point x="725" y="621" type="curve" smooth="yes"/>
      <point x="601" y="812" type="line" smooth="yes"/>
      <point x="595" y="822"/>
      <point x="580" y="831"/>
      <point x="568" y="831" type="curve" smooth="yes"/>
      <point x="413" y="832" type="line"/>
      <point x="407" y="836"/>
      <point x="399" y="839"/>
      <point x="391" y="839" type="curve" smooth="yes"/>
      <point x="383" y="839"/>
      <point x="376" y="837"/>
      <point x="370" y="832" type="curve"/>
      <point x="223" y="834" type="line" smooth="yes"/>
      <point x="207" y="834"/>
      <point x="190" y="821"/>
      <point x="185" y="805" type="curve" smooth="yes"/>
      <point x="82" y="476" type="line" smooth="yes"/>
      <point x="75" y="452"/>
      <point x="89" y="429"/>
      <point x="113" y="425" type="curve" smooth="yes"/>
      <point x="351" y="379" type="line"/>
      <point x="351" y="62" type="line"/>
      <point x="113" y="232" type="line" smooth="yes"/>
      <point x="96" y="244"/>
      <point x="70" y="240"/>
      <point x="57" y="222" type="curve" smooth="yes"/>
      <point x="45" y="205"/>
      <point x="49" y="179"/>
      <point x="67" y="166" type="curve" smooth="yes"/>
      <point x="347" y="-34" type="line" smooth="yes"/>
      <point x="356" y="-40"/>
      <point x="369" y="-42"/>
      <point x="380" y="-39" type="curve"/>
      <point x="384" y="-40"/>
      <point x="387" y="-41"/>
    </contour>
  </outline>
</glyph>
<glyph name="percent" format="1">
  <advance width="779"/>
  <unicode hex="0025"/>
  <outline>
    <contour>
      <point x="290" y="839" type="curve" smooth="yes"/>
      <point x="268" y="839"/>
      <point x="250" y="821"/>
      <point x="250" y="799" type="curve" smooth="yes"/>
      <point x="250" y="789" type="line" smooth="yes"/>
      <point x="250" y="767"/>
      <point x="268" y="749"/>
      <point x="290" y="749" type="curve" smooth="yes"/>
      <point x="312" y="749"/>
      <point x="330" y="767"/>
      <point x="330" y="789" type="curve" smooth="yes"/>
      <point x="330" y="799" type="line" smooth="yes"/>
      <point x="330" y="821"/>
      <point x="312" y="839"/>
    </contour>
    <contour>
      <point x="122" y="-25" type="curve" smooth="yes"/>
      <point x="722" y="775" type="line" smooth="yes"/>
      <point x="735" y="792"/>
      <point x="731" y="818"/>
      <point x="714" y="831" type="curve" smooth="yes"/>
      <point x="697" y="844"/>
      <point x="671" y="840"/>
      <point x="658" y="823" type="curve" smooth="yes"/>
      <point x="58" y="23" type="line" smooth="yes"/>
      <point x="45" y="6"/>
      <point x="49" y="-20"/>
      <point x="66" y="-33" type="curve" smooth="yes"/>
      <point x="83" y="-46"/>
      <point x="109" y="-42"/>
    </contour>
    <contour>
      <point x="490" y="-41" type="curve" smooth="yes"/>
      <point x="512" y="-41"/>
      <point x="530" y="-23"/>
      <point x="530" y="-1" type="curve" smooth="yes"/>
      <point x="530" y="9" type="line" smooth="yes"/>
      <point x="530" y="31"/>
      <point x="512" y="49"/>
      <point x="490" y="49" type="curve" smooth="yes"/>
      <point x="468" y="49"/>
      <point x="450" y="31"/>
      <point x="450" y="9" type="curve" smooth="yes"/>
      <point x="450" y="-1" type="line" smooth="yes"/>
      <point x="450" y="-23"/>
      <point x="468" y="-41"/>
    </contour>
  </outline>
</glyph>
<glyph name="ampersand" format="1">
  <advance width="758"/>
  <unicode hex="0026"/>
  <outline>
    <contour>
      <point x="692" y="-31" type="curve" smooth="yes"/>
      <point x="709" y="-18"/>
      <point x="713" y="8"/>
      <point x="700" y="25" type="curve" smooth="yes"/>
      <point x="550" y="225" type="line"/>
      <point x="695" y="372" type="line" smooth="yes"/>
      <point x="711" y="387"/>
      <point x="711" y="413"/>
      <point x="695" y="428" type="curve" smooth="yes"/>
      <point x="680" y="444"/>
      <point x="654" y="444"/>
      <point x="639" y="428" type="curve" smooth="yes"/>
      <point x="501" y="290" type="line"/>
      <point x="408" y="414" type="line"/>
      <point x="564" y="462" type="line" smooth="yes"/>
      <point x="596" y="471"/>
      <point x="604" y="506"/>
      <point x="580" y="529" type="curve" smooth="yes"/>
      <point x="331" y="770" type="line" smooth="yes"/>
      <point x="305" y="795"/>
      <point x="267" y="782"/>
      <point x="263" y="745" type="curve" smooth="yes"/>
      <point x="231" y="444" type="line"/>
      <point x="213" y="438" type="line" smooth="yes"/>
      <point x="203" y="435"/>
      <point x="192" y="425"/>
      <point x="188" y="415" type="curve" smooth="yes"/>
      <point x="54" y="92" type="line" smooth="yes"/>
      <point x="40" y="59"/>
      <point x="66" y="29"/>
      <point x="100" y="38" type="curve" smooth="yes"/>
      <point x="435" y="119" type="line" smooth="yes"/>
      <point x="441" y="120"/>
      <point x="450" y="125"/>
      <point x="454" y="130" type="curve" smooth="yes"/>
      <point x="493" y="168" type="line"/>
      <point x="636" y="-23" type="line" smooth="yes"/>
      <point x="649" y="-40"/>
      <point x="675" y="-44"/>
    </contour>
    <contour>
      <point x="314" y="469" type="line"/>
      <point x="334" y="655" type="line"/>
      <point x="476" y="518" type="line"/>
    </contour>
    <contour>
      <point x="263" y="361" type="curve"/>
      <point x="279" y="360"/>
      <point x="294" y="368"/>
      <point x="302" y="381" type="curve"/>
      <point x="330" y="390" type="line"/>
      <point x="331" y="385"/>
      <point x="333" y="381"/>
      <point x="336" y="377" type="curve" smooth="yes"/>
      <point x="444" y="233" type="line"/>
      <point x="406" y="194" type="line"/>
      <point x="158" y="134" type="line"/>
      <point x="253" y="364" type="line"/>
      <point x="263" y="361"/>
      <point x="263" y="361"/>
    </contour>
  </outline>
</glyph>
<glyph name="asterisk" format="1">
  <advance width="580"/>
  <unicode hex="002A"/>
  <outline>
    <contour>
      <point x="318" y="730" type="curve" smooth="yes"/>
      <point x="303" y="746"/>
      <point x="277" y="746"/>
      <point x="262" y="730" type="curve" smooth="yes"/>
      <point x="62" y="530" type="line" smooth="yes"/>
      <point x="46" y="515"/>
      <point x="46" y="489"/>
      <point x="62" y="474" type="curve" smooth="yes"/>
      <point x="77" y="458"/>
      <point x="103" y="458"/>
      <point x="118" y="474" type="curve" smooth="yes"/>
      <point x="318" y="674" type="line" smooth="yes"/>
      <point x="334" y="689"/>
      <point x="334" y="715"/>
    </contour>
    <contour>
      <point x="464" y="270" type="curve" smooth="yes"/>
      <point x="481" y="283"/>
      <point x="485" y="309"/>
      <point x="472" y="326" type="curve" smooth="yes"/>
      <point x="406" y="414" type="line"/>
      <point x="508" y="466" type="line" smooth="yes"/>
      <point x="527" y="476"/>
      <point x="535" y="501"/>
      <point x="526" y="520" type="curve" smooth="yes"/>
      <point x="516" y="539"/>
      <point x="491" y="547"/>
      <point x="472" y="538" type="curve" smooth="yes"/>
      <point x="357" y="479" type="line"/>
      <point x="322" y="526" type="line" smooth="yes"/>
      <point x="309" y="543"/>
      <point x="283" y="547"/>
      <point x="266" y="534" type="curve" smooth="yes"/>
      <point x="249" y="521"/>
      <point x="245" y="495"/>
      <point x="258" y="478" type="curve" smooth="yes"/>
      <point x="285" y="442" type="line"/>
      <point x="161" y="379" type="line" smooth="yes"/>
      <point x="156" y="377"/>
      <point x="150" y="371"/>
      <point x="146" y="367" type="curve" smooth="yes"/>
      <point x="117" y="325" type="line" smooth="yes"/>
      <point x="105" y="307"/>
      <point x="109" y="282"/>
      <point x="127" y="269" type="curve" smooth="yes"/>
      <point x="145" y="257"/>
      <point x="170" y="261"/>
      <point x="183" y="279" type="curve" smooth="yes"/>
      <point x="206" y="313" type="line"/>
      <point x="333" y="377" type="line"/>
      <point x="408" y="278" type="line" smooth="yes"/>
      <point x="421" y="261"/>
      <point x="447" y="257"/>
    </contour>
  </outline>
</glyph>
<glyph name="slash" format="1">
  <advance width="779"/>
  <unicode hex="002F"/>
  <outline>
    <contour>
      <point x="122" y="-22" type="curve" smooth="yes"/>
      <point x="722" y="778" type="line" smooth="yes"/>
      <point x="735" y="795"/>
      <point x="731" y="821"/>
      <point x="714" y="834" type="curve" smooth="yes"/>
      <point x="697" y="847"/>
      <point x="671" y="843"/>
      <point x="658" y="826" type="curve" smooth="yes"/>
      <point x="58" y="26" type="line" smooth="yes"/>
      <point x="45" y="9"/>
      <point x="49" y="-17"/>
      <point x="66" y="-30" type="curve" smooth="yes"/>
      <point x="83" y="-43"/>
      <point x="109" y="-39"/>
    </contour>
  </outline>
</glyph>
<glyph name="zero" format="1">
  <advance width="780"/>
  <unicode hex="0030"/>
  <outline>
    <contour>
      <point x="294" y="-38" type="curve" smooth="yes"/>
      <point x="638" y="-2" type="line" smooth="yes"/>
      <point x="654" y="0"/>
      <point x="670" y="15"/>
      <point x="673" y="32" type="curve" smooth="yes"/>
      <point x="729" y="376" type="line" smooth="yes"/>
      <point x="730" y="378"/>
      <point x="730" y="383"/>
      <point x="730" y="386" type="curve" smooth="yes"/>
      <point x="694" y="725" type="line" smooth="yes"/>
      <point x="693" y="734"/>
      <point x="688" y="743"/>
      <point x="680" y="750" type="curve"/>
      <point x="678" y="756"/>
      <point x="674" y="762"/>
      <point x="668" y="766" type="curve" smooth="yes"/>
      <point x="656" y="775"/>
      <point x="638" y="776"/>
      <point x="625" y="769" type="curve"/>
      <point x="327" y="841" type="line" smooth="yes"/>
      <point x="314" y="844"/>
      <point x="297" y="838"/>
      <point x="288" y="828" type="curve" smooth="yes"/>
      <point x="60" y="568" type="line" smooth="yes"/>
      <point x="54" y="562"/>
      <point x="50" y="550"/>
      <point x="50" y="542" type="curve" smooth="yes"/>
      <point x="50" y="195" type="line" smooth="yes"/>
      <point x="50" y="186"/>
      <point x="56" y="173"/>
      <point x="62" y="166" type="curve" smooth="yes"/>
      <point x="121" y="110" type="line"/>
      <point x="98" y="80" type="line" smooth="yes"/>
      <point x="85" y="63"/>
      <point x="89" y="37"/>
      <point x="106" y="24" type="curve" smooth="yes"/>
      <point x="123" y="11"/>
      <point x="149" y="15"/>
      <point x="162" y="32" type="curve" smooth="yes"/>
      <point x="179" y="55" type="line"/>
      <point x="256" y="-19" type="line"/>
      <point x="265" y="-32"/>
      <point x="279" y="-39"/>
    </contour>
    <contour>
      <point x="170" y="175" type="line"/>
      <point x="130" y="212" type="line"/>
      <point x="130" y="527" type="line"/>
      <point x="332" y="757" type="line"/>
      <point x="568" y="700" type="line"/>
    </contour>
    <contour>
      <point x="306" y="44" type="line"/>
      <point x="228" y="119" type="line"/>
      <point x="622" y="639" type="line"/>
      <point x="650" y="383" type="line"/>
      <point x="599" y="75" type="line"/>
    </contour>
  </outline>
</glyph>
<glyph name="one" format="1">
  <advance width="780"/>
  <unicode hex="0031"/>
  <outline>
    <contour>
      <point x="90" y="-39" type="curve" smooth="yes"/>
      <point x="690" y="-39" type="line" smooth="yes"/>
      <point x="712" y="-39"/>
      <point x="730" y="-21"/>
      <point x="730" y="1" type="curve" smooth="yes"/>
      <point x="730" y="23"/>
      <point x="712" y="41"/>
      <point x="690" y="41" type="curve" smooth="yes"/>
      <point x="268" y="41" type="line"/>
      <point x="423" y="258" type="line" smooth="yes"/>
      <point x="427" y="264"/>
      <point x="430" y="274"/>
      <point x="430" y="281" type="curve" smooth="yes"/>
      <point x="430" y="631" type="line" smooth="yes"/>
      <point x="430" y="655"/>
      <point x="410" y="673"/>
      <point x="386" y="671" type="curve" smooth="yes"/>
      <point x="86" y="641" type="line" smooth="yes"/>
      <point x="65" y="639"/>
      <point x="48" y="619"/>
      <point x="50" y="597" type="curve" smooth="yes"/>
      <point x="52" y="576"/>
      <point x="72" y="559"/>
      <point x="94" y="561" type="curve" smooth="yes"/>
      <point x="350" y="587" type="line"/>
      <point x="350" y="294" type="line"/>
      <point x="169" y="41" type="line"/>
      <point x="90" y="41" type="line" smooth="yes"/>
      <point x="68" y="41"/>
      <point x="50" y="23"/>
      <point x="50" y="1" type="curve" smooth="yes"/>
      <point x="50" y="-21"/>
      <point x="68" y="-39"/>
    </contour>
  </outline>
</glyph>
<glyph name="two" format="1">
  <advance width="780"/>
  <unicode hex="0032"/>
  <outline>
    <contour>
      <point x="340" y="-40" type="curve" smooth="yes"/>
      <point x="690" y="-40" type="line" smooth="yes"/>
      <point x="712" y="-40"/>
      <point x="730" y="-22"/>
      <point x="730" y="0" type="curve" smooth="yes"/>
      <point x="730" y="22"/>
      <point x="712" y="40"/>
      <point x="690" y="40" type="curve" smooth="yes"/>
      <point x="356" y="40" type="line"/>
      <point x="159" y="226" type="line"/>
      <point x="409" y="365" type="line"/>
      <point x="708" y="530" type="line" smooth="yes"/>
      <point x="734" y="545"/>
      <point x="737" y="575"/>
      <point x="715" y="595" type="curve" smooth="yes"/>
      <point x="457" y="830" type="line" smooth="yes"/>
      <point x="447" y="838"/>
      <point x="430" y="842"/>
      <point x="417" y="838" type="curve" smooth="yes"/>
      <point x="89" y="729" type="line" smooth="yes"/>
      <point x="76" y="725"/>
      <point x="64" y="710"/>
      <point x="62" y="696" type="curve" smooth="yes"/>
      <point x="50" y="605" type="line" smooth="yes"/>
      <point x="48" y="584"/>
      <point x="63" y="563"/>
      <point x="85" y="560" type="curve" smooth="yes"/>
      <point x="106" y="558"/>
      <point x="127" y="573"/>
      <point x="130" y="595" type="curve" smooth="yes"/>
      <point x="138" y="661" type="line"/>
      <point x="420" y="755" type="line"/>
      <point x="620" y="573" type="line"/>
      <point x="371" y="435" type="line"/>
      <point x="72" y="270" type="line" smooth="yes"/>
      <point x="47" y="256"/>
      <point x="43" y="225"/>
      <point x="64" y="205" type="curve" smooth="yes"/>
      <point x="313" y="-29" type="line" smooth="yes"/>
      <point x="319" y="-35"/>
      <point x="331" y="-40"/>
    </contour>
  </outline>
</glyph>
<glyph name="three" format="1">
  <advance width="776"/>
  <unicode hex="0033"/>
  <outline>
    <contour>
      <point x="386" y="-36" type="curve" smooth="yes"/>
      <point x="700" y="99" type="line" smooth="yes"/>
      <point x="727" y="111"/>
      <point x="734" y="140"/>
      <point x="715" y="162" type="curve" smooth="yes"/>
      <point x="512" y="401" type="line"/>
      <point x="715" y="640" type="line" smooth="yes"/>
      <point x="734" y="662"/>
      <point x="727" y="691"/>
      <point x="700" y="703" type="curve" smooth="yes"/>
      <point x="386" y="838" type="line" smooth="yes"/>
      <point x="374" y="843"/>
      <point x="357" y="841"/>
      <point x="347" y="834" type="curve" smooth="yes"/>
      <point x="67" y="634" type="line" smooth="yes"/>
      <point x="49" y="621"/>
      <point x="45" y="595"/>
      <point x="57" y="578" type="curve" smooth="yes"/>
      <point x="70" y="560"/>
      <point x="96" y="556"/>
      <point x="113" y="568" type="curve" smooth="yes"/>
      <point x="375" y="755" type="line"/>
      <point x="619" y="650" type="line"/>
      <point x="429" y="427" type="line" smooth="yes"/>
      <point x="417" y="413"/>
      <point x="417" y="389"/>
      <point x="429" y="375" type="curve" smooth="yes"/>
      <point x="619" y="152" type="line"/>
      <point x="375" y="47" type="line"/>
      <point x="113" y="234" type="line" smooth="yes"/>
      <point x="96" y="246"/>
      <point x="70" y="242"/>
      <point x="57" y="224" type="curve" smooth="yes"/>
      <point x="45" y="207"/>
      <point x="49" y="181"/>
      <point x="67" y="168" type="curve" smooth="yes"/>
      <point x="347" y="-32" type="line" smooth="yes"/>
      <point x="357" y="-39"/>
      <point x="374" y="-41"/>
    </contour>
  </outline>
</glyph>
<glyph name="four" format="1">
  <advance width="588"/>
  <unicode hex="0034"/>
  <outline>
    <contour>
      <point x="498" y="-39" type="curve" smooth="yes"/>
      <point x="520" y="-39"/>
      <point x="538" y="-21"/>
      <point x="538" y="1" type="curve" smooth="yes"/>
      <point x="538" y="600" type="line" smooth="yes"/>
      <point x="538" y="622"/>
      <point x="520" y="640"/>
      <point x="498" y="640" type="curve" smooth="yes"/>
      <point x="476" y="640"/>
      <point x="458" y="622"/>
      <point x="458" y="600" type="curve" smooth="yes"/>
      <point x="458" y="178" type="line"/>
      <point x="251" y="326" type="line"/>
      <point x="134" y="615" type="line"/>
      <point x="232" y="779" type="line" smooth="yes"/>
      <point x="243" y="798"/>
      <point x="237" y="823"/>
      <point x="219" y="834" type="curve" smooth="yes"/>
      <point x="200" y="845"/>
      <point x="175" y="839"/>
      <point x="164" y="821" type="curve" smooth="yes"/>
      <point x="55" y="640" type="line" smooth="yes"/>
      <point x="49" y="630"/>
      <point x="48" y="614"/>
      <point x="52" y="604" type="curve" smooth="yes"/>
      <point x="181" y="285" type="line" smooth="yes"/>
      <point x="183" y="279"/>
      <point x="190" y="271"/>
      <point x="195" y="267" type="curve" smooth="yes"/>
      <point x="458" y="79" type="line"/>
      <point x="458" y="1" type="line" smooth="yes"/>
      <point x="458" y="-21"/>
      <point x="476" y="-39"/>
    </contour>
  </outline>
</glyph>
<glyph name="five" format="1">
  <advance width="780"/>
  <unicode hex="0035"/>
  <outline>
    <contour>
      <point x="386" y="-36" type="curve" smooth="yes"/>
      <point x="700" y="99" type="line" smooth="yes"/>
      <point x="727" y="111"/>
      <point x="734" y="140"/>
      <point x="715" y="162" type="curve" smooth="yes"/>
      <point x="491" y="427" type="line" smooth="yes"/>
      <point x="484" y="435"/>
      <point x="470" y="441"/>
      <point x="460" y="441" type="curve" smooth="yes"/>
      <point x="152" y="441" type="line"/>
      <point x="166" y="711" type="line"/>
      <point x="473" y="761" type="line"/>
      <point x="690" y="761" type="line" smooth="yes"/>
      <point x="712" y="761"/>
      <point x="730" y="779"/>
      <point x="730" y="801" type="curve" smooth="yes"/>
      <point x="730" y="823"/>
      <point x="712" y="841"/>
      <point x="690" y="841" type="curve" smooth="yes"/>
      <point x="470" y="841" type="line" smooth="yes"/>
      <point x="468" y="841"/>
      <point x="465" y="841"/>
      <point x="464" y="840" type="curve" smooth="yes"/>
      <point x="121" y="785" type="line" smooth="yes"/>
      <point x="103" y="782"/>
      <point x="88" y="765"/>
      <point x="87" y="748" type="curve" smooth="yes"/>
      <point x="70" y="403" type="line" smooth="yes"/>
      <point x="69" y="380"/>
      <point x="87" y="361"/>
      <point x="110" y="361" type="curve" smooth="yes"/>
      <point x="441" y="361" type="line"/>
      <point x="619" y="152" type="line"/>
      <point x="375" y="47" type="line"/>
      <point x="113" y="234" type="line" smooth="yes"/>
      <point x="96" y="246"/>
      <point x="70" y="242"/>
      <point x="57" y="224" type="curve" smooth="yes"/>
      <point x="45" y="207"/>
      <point x="49" y="181"/>
      <point x="67" y="168" type="curve" smooth="yes"/>
      <point x="347" y="-32" type="line" smooth="yes"/>
      <point x="357" y="-39"/>
      <point x="374" y="-41"/>
    </contour>
  </outline>
</glyph>
<glyph name="six" format="1">
  <advance width="780"/>
  <unicode hex="0036"/>
  <outline>
    <contour>
      <point x="490" y="-25" type="curve" smooth="yes"/>
      <point x="717" y="234" type="line" smooth="yes"/>
      <point x="736" y="255"/>
      <point x="730" y="285"/>
      <point x="704" y="297" type="curve" smooth="yes"/>
      <point x="390" y="436" type="line"/>
      <point x="155" y="604" type="line"/>
      <point x="169" y="717" type="line"/>
      <point x="466" y="759" type="line"/>
      <point x="662" y="572" type="line" smooth="yes"/>
      <point x="678" y="557"/>
      <point x="704" y="558"/>
      <point x="719" y="573" type="curve" smooth="yes"/>
      <point x="734" y="589"/>
      <point x="733" y="615"/>
      <point x="718" y="630" type="curve" smooth="yes"/>
      <point x="508" y="830" type="line" smooth="yes"/>
      <point x="500" y="837"/>
      <point x="485" y="842"/>
      <point x="474" y="841" type="curve" smooth="yes"/>
      <point x="128" y="792" type="line" smooth="yes"/>
      <point x="111" y="790"/>
      <point x="96" y="774"/>
      <point x="94" y="757" type="curve" smooth="yes"/>
      <point x="79" y="639" type="line"/>
      <point x="70" y="637"/>
      <point x="63" y="632"/>
      <point x="57" y="624" type="curve" smooth="yes"/>
      <point x="45" y="607"/>
      <point x="49" y="581"/>
      <point x="67" y="568" type="curve" smooth="yes"/>
      <point x="70" y="566" type="line"/>
      <point x="50" y="416" type="line" smooth="yes"/>
      <point x="50" y="414"/>
      <point x="50" y="410"/>
      <point x="50" y="407" type="curve" smooth="yes"/>
      <point x="82" y="60" type="line" smooth="yes"/>
      <point x="83" y="43"/>
      <point x="98" y="27"/>
      <point x="114" y="24" type="curve" smooth="yes"/>
      <point x="453" y="-38" type="line" smooth="yes"/>
      <point x="465" y="-41"/>
      <point x="482" y="-35"/>
    </contour>
    <contour>
      <point x="347" y="368" type="line" smooth="yes"/>
      <point x="349" y="367"/>
      <point x="352" y="365"/>
      <point x="354" y="364" type="curve" smooth="yes"/>
      <point x="621" y="246" type="line"/>
      <point x="445" y="44" type="line"/>
      <point x="159" y="97" type="line"/>
      <point x="130" y="410" type="line"/>
      <point x="143" y="514" type="line"/>
    </contour>
  </outline>
</glyph>
<glyph name="seven" format="1">
  <advance width="757"/>
  <unicode hex="0037"/>
  <outline>
    <contour>
      <point x="323" y="-25" type="curve" smooth="yes"/>
      <point x="512" y="258" type="line"/>
      <point x="700" y="542" type="line" smooth="yes"/>
      <point x="711" y="557"/>
      <point x="708" y="581"/>
      <point x="694" y="593" type="curve" smooth="yes"/>
      <point x="436" y="827" type="line" smooth="yes"/>
      <point x="430" y="832"/>
      <point x="418" y="837"/>
      <point x="409" y="837" type="curve" smooth="yes"/>
      <point x="90" y="837" type="line" smooth="yes"/>
      <point x="68" y="837"/>
      <point x="50" y="819"/>
      <point x="50" y="797" type="curve" smooth="yes"/>
      <point x="50" y="775"/>
      <point x="68" y="757"/>
      <point x="90" y="757" type="curve" smooth="yes"/>
      <point x="394" y="757" type="line"/>
      <point x="614" y="557" type="line"/>
      <point x="445" y="302" type="line"/>
      <point x="257" y="19" type="line" smooth="yes"/>
      <point x="245" y="1"/>
      <point x="250" y="-24"/>
      <point x="268" y="-36" type="curve" smooth="yes"/>
      <point x="286" y="-48"/>
      <point x="311" y="-43"/>
    </contour>
  </outline>
</glyph>
<glyph name="eight" format="1">
  <advance width="782"/>
  <unicode hex="0038"/>
  <outline>
    <contour>
      <point x="446" y="-31" type="curve" smooth="yes"/>
      <point x="716" y="190" type="line" smooth="yes"/>
      <point x="739" y="208"/>
      <point x="737" y="240"/>
      <point x="711" y="255" type="curve" smooth="yes"/>
      <point x="518" y="371" type="line"/>
      <point x="520" y="373"/>
      <point x="523" y="375"/>
      <point x="524" y="378" type="curve" smooth="yes"/>
      <point x="715" y="670" type="line" smooth="yes"/>
      <point x="731" y="693"/>
      <point x="721" y="721"/>
      <point x="694" y="729" type="curve" smooth="yes"/>
      <point x="363" y="838" type="line" smooth="yes"/>
      <point x="351" y="842"/>
      <point x="334" y="838"/>
      <point x="325" y="830" type="curve" smooth="yes"/>
      <point x="65" y="602" type="line" smooth="yes"/>
      <point x="43" y="583"/>
      <point x="46" y="552"/>
      <point x="71" y="537" type="curve" smooth="yes"/>
      <point x="276" y="420" type="line"/>
      <point x="65" y="149" type="line" smooth="yes"/>
      <point x="47" y="127"/>
      <point x="55" y="98"/>
      <point x="82" y="87" type="curve" smooth="yes"/>
      <point x="407" y="-37" type="line" smooth="yes"/>
      <point x="419" y="-42"/>
      <point x="436" y="-39"/>
    </contour>
    <contour>
      <point x="469" y="440" type="line"/>
      <point x="402" y="440" type="line"/>
      <point x="160" y="579" type="line"/>
      <point x="360" y="755" type="line"/>
      <point x="620" y="670" type="line"/>
    </contour>
    <contour>
      <point x="621" y="216" type="line"/>
      <point x="414" y="46" type="line"/>
      <point x="161" y="143" type="line"/>
      <point x="331" y="360" type="line"/>
      <point x="380" y="360" type="line"/>
    </contour>
  </outline>
</glyph>
<glyph name="nine" format="1">
  <advance width="780"/>
  <unicode hex="0039"/>
  <outline>
    <contour>
      <point x="433" y="433" type="line" smooth="yes"/>
      <point x="431" y="434"/>
      <point x="428" y="436"/>
      <point x="426" y="437" type="curve" smooth="yes"/>
      <point x="159" y="555" type="line"/>
      <point x="335" y="757" type="line"/>
      <point x="621" y="704" type="line"/>
      <point x="650" y="391" type="line"/>
      <point x="637" y="287" type="line"/>
    </contour>
    <contour>
      <point x="306" y="-40" type="curve" smooth="yes"/>
      <point x="652" y="9" type="line" smooth="yes"/>
      <point x="669" y="11"/>
      <point x="684" y="27"/>
      <point x="686" y="44" type="curve" smooth="yes"/>
      <point x="701" y="162" type="line"/>
      <point x="710" y="164"/>
      <point x="717" y="169"/>
      <point x="723" y="177" type="curve" smooth="yes"/>
      <point x="735" y="194"/>
      <point x="731" y="220"/>
      <point x="713" y="233" type="curve" smooth="yes"/>
      <point x="710" y="235" type="line"/>
      <point x="730" y="385" type="line" smooth="yes"/>
      <point x="730" y="387"/>
      <point x="730" y="391"/>
      <point x="730" y="394" type="curve" smooth="yes"/>
      <point x="698" y="741" type="line" smooth="yes"/>
      <point x="697" y="758"/>
      <point x="682" y="774"/>
      <point x="666" y="777" type="curve" smooth="yes"/>
      <point x="327" y="839" type="line" smooth="yes"/>
      <point x="315" y="842"/>
      <point x="298" y="836"/>
      <point x="290" y="826" type="curve" smooth="yes"/>
      <point x="63" y="567" type="line" smooth="yes"/>
      <point x="44" y="546"/>
      <point x="50" y="516"/>
      <point x="76" y="504" type="curve" smooth="yes"/>
      <point x="390" y="365" type="line"/>
      <point x="625" y="197" type="line"/>
      <point x="611" y="84" type="line"/>
      <point x="314" y="42" type="line"/>
      <point x="118" y="229" type="line" smooth="yes"/>
      <point x="102" y="244"/>
      <point x="76" y="243"/>
      <point x="61" y="228" type="curve" smooth="yes"/>
      <point x="46" y="212"/>
      <point x="47" y="186"/>
      <point x="62" y="171" type="curve" smooth="yes"/>
      <point x="272" y="-29" type="line" smooth="yes"/>
      <point x="280" y="-36"/>
      <point x="295" y="-41"/>
    </contour>
  </outline>
</glyph>
<glyph name="less" format="1">
  <advance width="492"/>
  <unicode hex="003C"/>
  <outline>
    <contour>
      <point x="439" y="85" type="curve" smooth="yes"/>
      <point x="448" y="104"/>
      <point x="440" y="129"/>
      <point x="421" y="139" type="curve" smooth="yes"/>
      <point x="381" y="159" type="line"/>
      <point x="164" y="339" type="line"/>
      <point x="421" y="467" type="line" smooth="yes"/>
      <point x="440" y="477"/>
      <point x="448" y="502"/>
      <point x="439" y="521" type="curve" smooth="yes"/>
      <point x="429" y="540"/>
      <point x="404" y="548"/>
      <point x="385" y="539" type="curve" smooth="yes"/>
      <point x="74" y="383" type="line" smooth="yes"/>
      <point x="46" y="369"/>
      <point x="42" y="337"/>
      <point x="66" y="317" type="curve" smooth="yes"/>
      <point x="333" y="94" type="line" smooth="yes"/>
      <point x="335" y="93"/>
      <point x="338" y="91"/>
      <point x="341" y="89" type="curve" smooth="yes"/>
      <point x="385" y="67" type="line" smooth="yes"/>
      <point x="404" y="58"/>
      <point x="429" y="66"/>
    </contour>
  </outline>
</glyph>
<glyph name="greater" format="1">
  <advance width="492"/>
  <unicode hex="003E"/>
  <outline>
    <contour>
      <point x="108" y="84" type="curve" smooth="yes"/>
      <point x="152" y="106" type="line" smooth="yes"/>
      <point x="155" y="108"/>
      <point x="158" y="110"/>
      <point x="160" y="111" type="curve" smooth="yes"/>
      <point x="427" y="334" type="line" smooth="yes"/>
      <point x="451" y="354"/>
      <point x="447" y="386"/>
      <point x="419" y="400" type="curve" smooth="yes"/>
      <point x="108" y="556" type="line" smooth="yes"/>
      <point x="89" y="565"/>
      <point x="64" y="557"/>
      <point x="54" y="538" type="curve" smooth="yes"/>
      <point x="45" y="519"/>
      <point x="53" y="494"/>
      <point x="72" y="484" type="curve" smooth="yes"/>
      <point x="329" y="356" type="line"/>
      <point x="112" y="176" type="line"/>
      <point x="72" y="156" type="line" smooth="yes"/>
      <point x="53" y="146"/>
      <point x="45" y="121"/>
      <point x="54" y="102" type="curve" smooth="yes"/>
      <point x="64" y="83"/>
      <point x="89" y="75"/>
    </contour>
  </outline>
</glyph>
<glyph name="question" format="1">
  <advance width="630"/>
  <unicode hex="003F"/>
  <outline>
    <contour>
      <point x="317" y="171" type="curve" smooth="yes"/>
      <point x="568" y="415" type="line" smooth="yes"/>
      <point x="576" y="422"/>
      <point x="582" y="438"/>
      <point x="580" y="449" type="curve" smooth="yes"/>
      <point x="530" y="790" type="line" smooth="yes"/>
      <point x="527" y="811"/>
      <point x="507" y="827"/>
      <point x="486" y="824" type="curve" smooth="yes"/>
      <point x="139" y="784" type="line" smooth="yes"/>
      <point x="126" y="782"/>
      <point x="111" y="771"/>
      <point x="107" y="758" type="curve" smooth="yes"/>
      <point x="53" y="613" type="line" smooth="yes"/>
      <point x="45" y="593"/>
      <point x="56" y="569"/>
      <point x="76" y="562" type="curve" smooth="yes"/>
      <point x="96" y="554"/>
      <point x="120" y="565"/>
      <point x="127" y="585" type="curve" smooth="yes"/>
      <point x="173" y="707" type="line"/>
      <point x="456" y="740" type="line"/>
      <point x="498" y="458" type="line"/>
      <point x="261" y="229" type="line" smooth="yes"/>
      <point x="246" y="214"/>
      <point x="245" y="188"/>
      <point x="260" y="172" type="curve" smooth="yes"/>
      <point x="275" y="157"/>
      <point x="301" y="156"/>
    </contour>
    <contour>
      <point x="289" y="-40" type="curve" smooth="yes"/>
      <point x="311" y="-40"/>
      <point x="329" y="-22"/>
      <point x="329" y="0" type="curve" smooth="yes"/>
      <point x="329" y="11" type="line" smooth="yes"/>
      <point x="329" y="33"/>
      <point x="311" y="51"/>
      <point x="289" y="51" type="curve" smooth="yes"/>
      <point x="267" y="51"/>
      <point x="249" y="33"/>
      <point x="249" y="11" type="curve" smooth="yes"/>
      <point x="249" y="0" type="line" smooth="yes"/>
      <point x="249" y="-22"/>
      <point x="267" y="-40"/>
    </contour>
  </outline>
</glyph>
<glyph name="at" format="1">
  <advance width="780"/>
  <unicode hex="0040"/>
  <outline>
    <contour>
      <point x="530" y="-46" type="curve" smooth="yes"/>
      <point x="532" y="-25"/>
      <point x="516" y="-5"/>
      <point x="494" y="-2" type="curve" smooth="yes"/>
      <point x="184" y="31" type="line"/>
      <point x="130" y="332" type="line"/>
      <point x="145" y="643" type="line"/>
      <point x="426" y="714" type="line"/>
      <point x="646" y="505" type="line"/>
      <point x="585" y="236" type="line"/>
      <point x="530" y="260" type="line"/>
      <point x="530" y="558" type="line" smooth="yes"/>
      <point x="530" y="564"/>
      <point x="529" y="570"/>
      <point x="526" y="575" type="curve"/>
      <point x="524" y="580"/>
      <point x="520" y="585"/>
      <point x="515" y="589" type="curve" smooth="yes"/>
      <point x="512" y="591"/>
      <point x="509" y="593"/>
      <point x="506" y="595" type="curve"/>
      <point x="505" y="595"/>
      <point x="505" y="595"/>
      <point x="505" y="595" type="curve"/>
      <point x="504" y="595"/>
      <point x="503" y="596"/>
      <point x="502" y="596" type="curve"/>
      <point x="498" y="597"/>
      <point x="494" y="598"/>
      <point x="490" y="598" type="curve" smooth="yes"/>
      <point x="484" y="598"/>
      <point x="478" y="597"/>
      <point x="473" y="594" type="curve"/>
      <point x="468" y="592"/>
      <point x="463" y="588"/>
      <point x="459" y="583" type="curve" smooth="yes"/>
      <point x="263" y="345" type="line" smooth="yes"/>
      <point x="245" y="323"/>
      <point x="252" y="294"/>
      <point x="278" y="283" type="curve" smooth="yes"/>
      <point x="450" y="208" type="line"/>
      <point x="450" y="158" type="line" smooth="yes"/>
      <point x="450" y="136"/>
      <point x="468" y="118"/>
      <point x="490" y="118" type="curve" smooth="yes"/>
      <point x="512" y="118"/>
      <point x="530" y="136"/>
      <point x="530" y="158" type="curve" smooth="yes"/>
      <point x="530" y="173" type="line"/>
      <point x="597" y="144" type="line" smooth="yes"/>
      <point x="621" y="133"/>
      <point x="646" y="146"/>
      <point x="652" y="172" type="curve" smooth="yes"/>
      <point x="729" y="509" type="line" smooth="yes"/>
      <point x="732" y="522"/>
      <point x="727" y="539"/>
      <point x="718" y="547" type="curve" smooth="yes"/>
      <point x="466" y="787" type="line" smooth="yes"/>
      <point x="457" y="795"/>
      <point x="440" y="800"/>
      <point x="428" y="797" type="curve" smooth="yes"/>
      <point x="97" y="713" type="line" smooth="yes"/>
      <point x="81" y="709"/>
      <point x="67" y="693"/>
      <point x="67" y="677" type="curve" smooth="yes"/>
      <point x="50" y="332" type="line" smooth="yes"/>
      <point x="50" y="329"/>
      <point x="50" y="325"/>
      <point x="51" y="323" type="curve" smooth="yes"/>
      <point x="110" y="-13" type="line" smooth="yes"/>
      <point x="113" y="-29"/>
      <point x="129" y="-44"/>
      <point x="146" y="-46" type="curve" smooth="yes"/>
      <point x="486" y="-82" type="line" smooth="yes"/>
      <point x="507" y="-84"/>
      <point x="527" y="-68"/>
    </contour>
    <contour>
      <point x="450" y="295" type="line"/>
      <point x="359" y="335" type="line"/>
      <point x="450" y="446" type="line"/>
    </contour>
  </outline>
</glyph>
<glyph name="C" format="1">
  <advance width="780"/>
  <unicode hex="0043"/>
  <outline>
    <contour>
      <point x="599" y="-27" type="line" smooth="yes"/>
      <point x="612" y="-27"/>
      <point x="627" y="-17"/>
      <point x="633" y="-5" type="curve" smooth="yes"/>
      <point x="726" y="180" type="line" smooth="yes"/>
      <point x="735" y="199"/>
      <point x="727" y="224"/>
      <point x="708" y="234" type="curve" smooth="yes"/>
      <point x="689" y="243"/>
      <point x="664" y="235"/>
      <point x="654" y="216" type="curve" smooth="yes"/>
      <point x="572" y="52" type="line"/>
      <point x="278" y="39" type="line"/>
      <point x="130" y="315" type="line"/>
      <point x="131" y="627" type="line"/>
      <point x="404" y="752" type="line"/>
      <point x="667" y="565" type="line" smooth="yes"/>
      <point x="684" y="553"/>
      <point x="710" y="557"/>
      <point x="723" y="575" type="curve" smooth="yes"/>
      <point x="735" y="592"/>
      <point x="731" y="618"/>
      <point x="713" y="631" type="curve" smooth="yes"/>
      <point x="431" y="831" type="line" smooth="yes"/>
      <point x="421" y="838"/>
      <point x="403" y="840"/>
      <point x="391" y="834" type="curve" smooth="yes"/>
      <point x="75" y="689" type="line" smooth="yes"/>
      <point x="62" y="683"/>
      <point x="51" y="667"/>
      <point x="51" y="653" type="curve" smooth="yes"/>
      <point x="50" y="305" type="line" smooth="yes"/>
      <point x="50" y="299"/>
      <point x="52" y="291"/>
      <point x="55" y="286" type="curve" smooth="yes"/>
      <point x="219" y="-21" type="line" smooth="yes"/>
      <point x="226" y="-33"/>
      <point x="243" y="-42"/>
      <point x="256" y="-42" type="curve" smooth="yes"/>
    </contour>
  </outline>
</glyph>
<glyph name="F" format="1">
  <advance width="779"/>
  <unicode hex="0046"/>
  <outline>
    <contour>
      <point x="130" y="0" type="curve" smooth="yes"/>
      <point x="131" y="133" type="line"/>
      <point x="359" y="374" type="line" smooth="yes"/>
      <point x="373" y="389"/>
      <point x="373" y="414"/>
      <point x="359" y="429" type="curve" smooth="yes"/>
      <point x="159" y="644" type="line"/>
      <point x="403" y="754" type="line"/>
      <point x="666" y="569" type="line" smooth="yes"/>
      <point x="684" y="557"/>
      <point x="709" y="561"/>
      <point x="722" y="579" type="curve" smooth="yes"/>
      <point x="734" y="597"/>
      <point x="730" y="622"/>
      <point x="712" y="635" type="curve" smooth="yes"/>
      <point x="430" y="833" type="line" smooth="yes"/>
      <point x="420" y="840"/>
      <point x="402" y="842"/>
      <point x="391" y="836" type="curve" smooth="yes"/>
      <point x="76" y="694" type="line" smooth="yes"/>
      <point x="49" y="681"/>
      <point x="43" y="651"/>
      <point x="63" y="630" type="curve" smooth="yes"/>
      <point x="275" y="402" type="line"/>
      <point x="62" y="176" type="line" smooth="yes"/>
      <point x="56" y="170"/>
      <point x="51" y="157"/>
      <point x="51" y="149" type="curve" smooth="yes"/>
      <point x="50" y="0" type="line" smooth="yes"/>
      <point x="50" y="-21"/>
      <point x="68" y="-40"/>
      <point x="90" y="-40" type="curve" smooth="yes"/>
      <point x="111" y="-40"/>
      <point x="130" y="-22"/>
    </contour>
  </outline>
</glyph>
<glyph name="G" format="1">
  <advance width="780"/>
  <unicode hex="0047"/>
  <outline>
    <contour>
      <point x="584" y="-24" type="line" smooth="yes"/>
      <point x="600" y="-24"/>
      <point x="617" y="-12"/>
      <point x="621" y="3" type="curve" smooth="yes"/>
      <point x="728" y="332" type="line" smooth="yes"/>
      <point x="735" y="354"/>
      <point x="723" y="377"/>
      <point x="700" y="383" type="curve" smooth="yes"/>
      <point x="387" y="468" type="line"/>
      <point x="327" y="619" type="line" smooth="yes"/>
      <point x="319" y="639"/>
      <point x="295" y="649"/>
      <point x="275" y="641" type="curve" smooth="yes"/>
      <point x="255" y="633"/>
      <point x="245" y="609"/>
      <point x="253" y="589" type="curve" smooth="yes"/>
      <point x="320" y="420" type="line" smooth="yes"/>
      <point x="324" y="409"/>
      <point x="336" y="399"/>
      <point x="346" y="396" type="curve" smooth="yes"/>
      <point x="639" y="316" type="line"/>
      <point x="554" y="55" type="line"/>
      <point x="266" y="48" type="line"/>
      <point x="130" y="323" type="line"/>
      <point x="132" y="637" type="line"/>
      <point x="403" y="758" type="line"/>
      <point x="667" y="571" type="line" smooth="yes"/>
      <point x="684" y="559"/>
      <point x="710" y="563"/>
      <point x="723" y="581" type="curve" smooth="yes"/>
      <point x="735" y="598"/>
      <point x="731" y="624"/>
      <point x="713" y="637" type="curve" smooth="yes"/>
      <point x="431" y="837" type="line" smooth="yes"/>
      <point x="421" y="844"/>
      <point x="403" y="846"/>
      <point x="392" y="841" type="curve" smooth="yes"/>
      <point x="76" y="699" type="line" smooth="yes"/>
      <point x="63" y="693"/>
      <point x="52" y="677"/>
      <point x="52" y="663" type="curve" smooth="yes"/>
      <point x="50" y="314" type="line" smooth="yes"/>
      <point x="50" y="309"/>
      <point x="52" y="301"/>
      <point x="54" y="296" type="curve" smooth="yes"/>
      <point x="206" y="-11" type="line" smooth="yes"/>
      <point x="212" y="-23"/>
      <point x="229" y="-33"/>
      <point x="243" y="-33" type="curve" smooth="yes"/>
    </contour>
  </outline>
</glyph>
<glyph name="H" format="1">
  <advance width="780"/>
  <unicode hex="0048"/>
  <outline>
    <contour>
      <point x="690" y="-44" type="curve" smooth="yes"/>
      <point x="712" y="-44"/>
      <point x="730" y="-26"/>
      <point x="730" y="-4" type="curve" smooth="yes"/>
      <point x="730" y="696" type="line" smooth="yes"/>
      <point x="730" y="740"/>
      <point x="676" y="754"/>
      <point x="655" y="715" type="curve" smooth="yes"/>
      <point x="500" y="436" type="line"/>
      <point x="175" y="416" type="line" smooth="yes"/>
      <point x="159" y="415"/>
      <point x="143" y="401"/>
      <point x="139" y="386" type="curve" smooth="yes"/>
      <point x="130" y="353" type="line"/>
      <point x="130" y="386" type="line"/>
      <point x="130" y="736" type="line"/>
      <point x="130" y="796" type="line" smooth="yes"/>
      <point x="130" y="818"/>
      <point x="112" y="836"/>
      <point x="90" y="836" type="curve" smooth="yes"/>
      <point x="68" y="836"/>
      <point x="50" y="818"/>
      <point x="50" y="796" type="curve" smooth="yes"/>
      <point x="50" y="736" type="line"/>
      <point x="50" y="386" type="line"/>
      <point x="52" y="46" type="line" smooth="yes"/>
      <point x="52" y="-3"/>
      <point x="118" y="-11"/>
      <point x="130" y="36" type="curve" smooth="yes"/>
      <point x="209" y="338" type="line"/>
      <point x="527" y="357" type="line" smooth="yes"/>
      <point x="539" y="358"/>
      <point x="554" y="367"/>
      <point x="559" y="378" type="curve" smooth="yes"/>
      <point x="650" y="541" type="line"/>
      <point x="650" y="-4" type="line" smooth="yes"/>
      <point x="650" y="-26"/>
      <point x="668" y="-44"/>
    </contour>
  </outline>
</glyph>
<glyph name="I" format="1">
  <advance width="780"/>
  <unicode hex="0049"/>
  <outline>
    <contour>
      <point x="90" y="-41" type="curve" smooth="yes"/>
      <point x="440" y="-41" type="line" smooth="yes"/>
      <point x="465" y="-41"/>
      <point x="483" y="-20"/>
      <point x="480" y="5" type="curve" smooth="yes"/>
      <point x="430" y="342" type="line"/>
      <point x="422" y="653" type="line"/>
      <point x="704" y="762" type="line" smooth="yes"/>
      <point x="725" y="769"/>
      <point x="735" y="793"/>
      <point x="727" y="813" type="curve" smooth="yes"/>
      <point x="720" y="834"/>
      <point x="696" y="844"/>
      <point x="676" y="836" type="curve" smooth="yes"/>
      <point x="367" y="717" type="line" smooth="yes"/>
      <point x="352" y="712"/>
      <point x="341" y="695"/>
      <point x="341" y="679" type="curve" smooth="yes"/>
      <point x="350" y="338" type="line" smooth="yes"/>
      <point x="350" y="336"/>
      <point x="350" y="334"/>
      <point x="350" y="333" type="curve" smooth="yes"/>
      <point x="394" y="39" type="line"/>
      <point x="90" y="39" type="line" smooth="yes"/>
      <point x="68" y="39"/>
      <point x="50" y="21"/>
      <point x="50" y="-1" type="curve" smooth="yes"/>
      <point x="50" y="-23"/>
      <point x="68" y="-41"/>
    </contour>
  </outline>
</glyph>
<glyph name="K" format="1">
  <advance width="780"/>
  <unicode hex="004B"/>
  <outline>
    <contour>
      <point x="694" y="-36" type="curve" smooth="yes"/>
      <point x="716" y="-34"/>
      <point x="732" y="-13"/>
      <point x="730" y="8" type="curve" smooth="yes"/>
      <point x="693" y="352" type="line" smooth="yes"/>
      <point x="692" y="369"/>
      <point x="677" y="384"/>
      <point x="660" y="387" type="curve" smooth="yes"/>
      <point x="541" y="407" type="line"/>
      <point x="722" y="661" type="line" smooth="yes"/>
      <point x="726" y="666"/>
      <point x="729" y="677"/>
      <point x="729" y="684" type="curve" smooth="yes"/>
      <point x="730" y="804" type="line" smooth="yes"/>
      <point x="730" y="825"/>
      <point x="712" y="844"/>
      <point x="690" y="844" type="curve" smooth="yes"/>
      <point x="669" y="844"/>
      <point x="650" y="826"/>
      <point x="650" y="804" type="curve" smooth="yes"/>
      <point x="649" y="697" type="line"/>
      <point x="457" y="427" type="line" smooth="yes"/>
      <point x="456" y="425"/>
      <point x="455" y="423"/>
      <point x="454" y="421" type="curve"/>
      <point x="316" y="443" type="line" smooth="yes"/>
      <point x="304" y="446"/>
      <point x="287" y="439"/>
      <point x="279" y="429" type="curve" smooth="yes"/>
      <point x="134" y="246" type="line"/>
      <point x="130" y="475" type="line"/>
      <point x="130" y="804" type="line" smooth="yes"/>
      <point x="130" y="826"/>
      <point x="112" y="844"/>
      <point x="90" y="844" type="curve" smooth="yes"/>
      <point x="68" y="844"/>
      <point x="50" y="826"/>
      <point x="50" y="804" type="curve" smooth="yes"/>
      <point x="50" y="473" type="line"/>
      <point x="56" y="133" type="line" smooth="yes"/>
      <point x="57" y="93"/>
      <point x="102" y="77"/>
      <point x="127" y="109" type="curve" smooth="yes"/>
      <point x="327" y="361" type="line"/>
      <point x="617" y="313" type="line"/>
      <point x="650" y="0" type="line" smooth="yes"/>
      <point x="652" y="-22"/>
      <point x="673" y="-38"/>
    </contour>
  </outline>
</glyph>
<glyph name="L" format="1">
  <advance width="780"/>
  <unicode hex="004C"/>
  <outline>
    <contour>
      <point x="430" y="-40" type="curve" smooth="yes"/>
      <point x="690" y="-40" type="line" smooth="yes"/>
      <point x="712" y="-40"/>
      <point x="730" y="-22"/>
      <point x="730" y="0" type="curve" smooth="yes"/>
      <point x="730" y="22"/>
      <point x="712" y="40"/>
      <point x="690" y="40" type="curve" smooth="yes"/>
      <point x="436" y="40" type="line"/>
      <point x="141" y="138" type="line"/>
      <point x="130" y="450" type="line"/>
      <point x="130" y="800" type="line" smooth="yes"/>
      <point x="130" y="822"/>
      <point x="112" y="840"/>
      <point x="90" y="840" type="curve" smooth="yes"/>
      <point x="68" y="840"/>
      <point x="50" y="822"/>
      <point x="50" y="800" type="curve" smooth="yes"/>
      <point x="50" y="450" type="line"/>
      <point x="62" y="107" type="line" smooth="yes"/>
      <point x="62" y="92"/>
      <point x="74" y="76"/>
      <point x="89" y="71" type="curve" smooth="yes"/>
      <point x="417" y="-38" type="line" smooth="yes"/>
      <point x="421" y="-39"/>
      <point x="426" y="-40"/>
    </contour>
  </outline>
</glyph>
<glyph name="M" format="1">
  <advance width="780"/>
  <unicode hex="004D"/>
  <outline>
    <contour>
      <point x="690" y="-41" type="curve" smooth="yes"/>
      <point x="712" y="-41"/>
      <point x="730" y="-23"/>
      <point x="730" y="-1" type="curve" smooth="yes"/>
      <point x="730" y="699" type="line" smooth="yes"/>
      <point x="730" y="733"/>
      <point x="698" y="751"/>
      <point x="669" y="733" type="curve" smooth="yes"/>
      <point x="406" y="572" type="line"/>
      <point x="222" y="823" type="line" smooth="yes"/>
      <point x="201" y="852"/>
      <point x="162" y="845"/>
      <point x="152" y="811" type="curve" smooth="yes"/>
      <point x="52" y="481" type="line" smooth="yes"/>
      <point x="51" y="477"/>
      <point x="50" y="472"/>
      <point x="50" y="469" type="curve" smooth="yes"/>
      <point x="50" y="-1" type="line" smooth="yes"/>
      <point x="50" y="-23"/>
      <point x="68" y="-41"/>
      <point x="90" y="-41" type="curve" smooth="yes"/>
      <point x="112" y="-41"/>
      <point x="130" y="-23"/>
      <point x="130" y="-1" type="curve" smooth="yes"/>
      <point x="130" y="463" type="line"/>
      <point x="205" y="711" type="line"/>
      <point x="363" y="495" type="line" smooth="yes"/>
      <point x="375" y="479"/>
      <point x="399" y="474"/>
      <point x="416" y="485" type="curve" smooth="yes"/>
      <point x="650" y="628" type="line"/>
      <point x="650" y="-1" type="line" smooth="yes"/>
      <point x="650" y="-23"/>
      <point x="668" y="-41"/>
    </contour>
  </outline>
</glyph>
<glyph name="O" format="1">
  <advance width="781"/>
  <unicode hex="004F"/>
  <outline>
    <contour>
      <point x="473" y="39" type="line"/>
      <point x="312" y="39" type="line"/>
      <point x="130" y="292" type="line"/>
      <point x="130" y="597" type="line"/>
      <point x="389" y="753" type="line"/>
      <point x="651" y="604" type="line"/>
      <point x="651" y="292" type="line"/>
    </contour>
    <contour>
      <point x="484" y="-41" type="line" smooth="yes"/>
      <point x="486" y="-41"/>
      <point x="488" y="-41"/>
      <point x="489" y="-41" type="curve"/>
      <point x="504" y="-42"/>
      <point x="518" y="-36"/>
      <point x="527" y="-24" type="curve" smooth="yes"/>
      <point x="724" y="256" type="line" smooth="yes"/>
      <point x="728" y="262"/>
      <point x="731" y="272"/>
      <point x="731" y="279" type="curve" smooth="yes"/>
      <point x="731" y="627" type="line" smooth="yes"/>
      <point x="731" y="640"/>
      <point x="722" y="655"/>
      <point x="710" y="662" type="curve" smooth="yes"/>
      <point x="408" y="834" type="line" smooth="yes"/>
      <point x="397" y="840"/>
      <point x="379" y="840"/>
      <point x="368" y="833" type="curve" smooth="yes"/>
      <point x="69" y="654" type="line" smooth="yes"/>
      <point x="59" y="647"/>
      <point x="50" y="632"/>
      <point x="50" y="619" type="curve" smooth="yes"/>
      <point x="50" y="279" type="line" smooth="yes"/>
      <point x="50" y="272"/>
      <point x="53" y="261"/>
      <point x="58" y="256" type="curve" smooth="yes"/>
      <point x="260" y="-24" type="line" smooth="yes"/>
      <point x="266" y="-34"/>
      <point x="281" y="-41"/>
      <point x="292" y="-41" type="curve" smooth="yes"/>
    </contour>
  </outline>
</glyph>
<glyph name="P" format="1">
  <advance width="778"/>
  <unicode hex="0050"/>
  <outline>
    <contour>
      <point x="90" y="-37" type="curve" smooth="yes"/>
      <point x="112" y="-37"/>
      <point x="130" y="-19"/>
      <point x="130" y="3" type="curve" smooth="yes"/>
      <point x="130" y="79" type="line"/>
      <point x="391" y="272" type="line"/>
      <point x="705" y="411" type="line" smooth="yes"/>
      <point x="722" y="419"/>
      <point x="732" y="440"/>
      <point x="727" y="458" type="curve" smooth="yes"/>
      <point x="642" y="793" type="line" smooth="yes"/>
      <point x="638" y="808"/>
      <point x="622" y="822"/>
      <point x="606" y="823" type="curve" smooth="yes"/>
      <point x="272" y="843" type="line" smooth="yes"/>
      <point x="259" y="843"/>
      <point x="243" y="835"/>
      <point x="236" y="823" type="curve" smooth="yes"/>
      <point x="56" y="524" type="line" smooth="yes"/>
      <point x="53" y="518"/>
      <point x="50" y="509"/>
      <point x="50" y="503" type="curve" smooth="yes"/>
      <point x="50" y="3" type="line" smooth="yes"/>
      <point x="50" y="-19"/>
      <point x="68" y="-37"/>
    </contour>
    <contour>
      <point x="354" y="344" type="line" smooth="yes"/>
      <point x="352" y="343"/>
      <point x="349" y="341"/>
      <point x="347" y="339" type="curve" smooth="yes"/>
      <point x="130" y="178" type="line"/>
      <point x="130" y="492" type="line"/>
      <point x="292" y="761" type="line"/>
      <point x="572" y="745" type="line"/>
      <point x="641" y="471" type="line"/>
    </contour>
  </outline>
</glyph>
<glyph name="Q" format="1">
  <advance width="781"/>
  <unicode hex="0051"/>
  <outline>
    <contour>
      <point x="470" y="39" type="line"/>
      <point x="311" y="39" type="line"/>
      <point x="130" y="292" type="line"/>
      <point x="130" y="597" type="line"/>
      <point x="389" y="753" type="line"/>
      <point x="651" y="604" type="line"/>
      <point x="651" y="292" type="line"/>
    </contour>
    <contour>
      <point x="481" y="-41" type="line" smooth="yes"/>
      <point x="483" y="-41"/>
      <point x="485" y="-41"/>
      <point x="486" y="-41" type="curve"/>
      <point x="500" y="-42"/>
      <point x="515" y="-36"/>
      <point x="524" y="-24" type="curve" smooth="yes"/>
      <point x="724" y="256" type="line" smooth="yes"/>
      <point x="728" y="262"/>
      <point x="731" y="272"/>
      <point x="731" y="279" type="curve" smooth="yes"/>
      <point x="731" y="627" type="line" smooth="yes"/>
      <point x="731" y="640"/>
      <point x="722" y="655"/>
      <point x="710" y="662" type="curve" smooth="yes"/>
      <point x="408" y="834" type="line" smooth="yes"/>
      <point x="397" y="840"/>
      <point x="379" y="840"/>
      <point x="368" y="833" type="curve" smooth="yes"/>
      <point x="69" y="654" type="line" smooth="yes"/>
      <point x="59" y="647"/>
      <point x="50" y="632"/>
      <point x="50" y="619" type="curve" smooth="yes"/>
      <point x="50" y="279" type="line" smooth="yes"/>
      <point x="50" y="272"/>
      <point x="53" y="262"/>
      <point x="57" y="256" type="curve" smooth="yes"/>
      <point x="257" y="-24" type="line" smooth="yes"/>
      <point x="264" y="-34"/>
      <point x="279" y="-41"/>
      <point x="290" y="-41" type="curve" smooth="yes"/>
    </contour>
  </outline>
</glyph>
<glyph name="U" format="1">
  <advance width="779"/>
  <unicode hex="0055"/>
  <outline>
    <contour>
      <point x="363" y="-39" type="curve" smooth="yes"/>
      <point x="690" y="61" type="line" smooth="yes"/>
      <point x="705" y="66"/>
      <point x="718" y="83"/>
      <point x="718" y="98" type="curve" smooth="yes"/>
      <point x="729" y="449" type="line"/>
      <point x="729" y="799" type="line" smooth="yes"/>
      <point x="729" y="821"/>
      <point x="711" y="839"/>
      <point x="689" y="839" type="curve" smooth="yes"/>
      <point x="667" y="839"/>
      <point x="649" y="821"/>
      <point x="649" y="799" type="curve" smooth="yes"/>
      <point x="649" y="449" type="line"/>
      <point x="639" y="129" type="line"/>
      <point x="361" y="44" type="line"/>
      <point x="130" y="247" type="line"/>
      <point x="130" y="799" type="line" smooth="yes"/>
      <point x="130" y="821"/>
      <point x="112" y="839"/>
      <point x="90" y="839" type="curve" smooth="yes"/>
      <point x="68" y="839"/>
      <point x="50" y="821"/>
      <point x="50" y="799" type="curve" smooth="yes"/>
      <point x="50" y="229" type="line" smooth="yes"/>
      <point x="50" y="219"/>
      <point x="56" y="206"/>
      <point x="64" y="199" type="curve" smooth="yes"/>
      <point x="325" y="-31" type="line" smooth="yes"/>
      <point x="335" y="-39"/>
      <point x="352" y="-43"/>
    </contour>
  </outline>
</glyph>
<glyph name="W" format="1">
  <advance width="780"/>
  <unicode hex="0057"/>
  <outline>
    <contour>
      <point x="628" y="-12" type="curve" smooth="yes"/>
      <point x="728" y="318" type="line" smooth="yes"/>
      <point x="729" y="322"/>
      <point x="730" y="327"/>
      <point x="730" y="330" type="curve" smooth="yes"/>
      <point x="730" y="800" type="line" smooth="yes"/>
      <point x="730" y="822"/>
      <point x="712" y="840"/>
      <point x="690" y="840" type="curve" smooth="yes"/>
      <point x="668" y="840"/>
      <point x="650" y="822"/>
      <point x="650" y="800" type="curve" smooth="yes"/>
      <point x="650" y="336" type="line"/>
      <point x="575" y="88" type="line"/>
      <point x="418" y="304" type="line" smooth="yes"/>
      <point x="406" y="320"/>
      <point x="382" y="325"/>
      <point x="365" y="314" type="curve" smooth="yes"/>
      <point x="130" y="171" type="line"/>
      <point x="130" y="800" type="line" smooth="yes"/>
      <point x="130" y="822"/>
      <point x="112" y="840"/>
      <point x="90" y="840" type="curve" smooth="yes"/>
      <point x="68" y="840"/>
      <point x="50" y="822"/>
      <point x="50" y="800" type="curve" smooth="yes"/>
      <point x="50" y="100" type="line"/>
      <point x="50" y="66"/>
      <point x="82" y="48"/>
      <point x="111" y="66" type="curve" smooth="yes"/>
      <point x="375" y="227" type="line"/>
      <point x="558" y="-24" type="line" smooth="yes"/>
      <point x="579" y="-53"/>
      <point x="618" y="-46"/>
    </contour>
  </outline>
</glyph>
<glyph name="X" format="1">
  <advance width="780"/>
  <unicode hex="0058"/>
  <outline>
    <contour>
      <point x="130" y="0" type="curve" smooth="yes"/>
      <point x="130" y="125" type="line"/>
      <point x="333" y="356" type="line"/>
      <point x="615" y="310" type="line"/>
      <point x="650" y="-4" type="line" smooth="yes"/>
      <point x="653" y="-26"/>
      <point x="673" y="-42"/>
      <point x="694" y="-40" type="curve" smooth="yes"/>
      <point x="716" y="-37"/>
      <point x="732" y="-17"/>
      <point x="730" y="4" type="curve" smooth="yes"/>
      <point x="691" y="349" type="line" smooth="yes"/>
      <point x="689" y="366"/>
      <point x="674" y="381"/>
      <point x="658" y="384" type="curve" smooth="yes"/>
      <point x="562" y="400" type="line"/>
      <point x="661" y="416" type="line" smooth="yes"/>
      <point x="677" y="419"/>
      <point x="692" y="434"/>
      <point x="694" y="451" type="curve" smooth="yes"/>
      <point x="730" y="796" type="line" smooth="yes"/>
      <point x="732" y="817"/>
      <point x="716" y="838"/>
      <point x="694" y="840" type="curve" smooth="yes"/>
      <point x="673" y="842"/>
      <point x="652" y="826"/>
      <point x="650" y="804" type="curve" smooth="yes"/>
      <point x="618" y="490" type="line"/>
      <point x="329" y="442" type="line"/>
      <point x="130" y="684" type="line"/>
      <point x="130" y="800" type="line" smooth="yes"/>
      <point x="130" y="822"/>
      <point x="112" y="840"/>
      <point x="90" y="840" type="curve" smooth="yes"/>
      <point x="68" y="840"/>
      <point x="50" y="822"/>
      <point x="50" y="800" type="curve" smooth="yes"/>
      <point x="50" y="670" type="line" smooth="yes"/>
      <point x="50" y="662"/>
      <point x="54" y="651"/>
      <point x="59" y="645" type="curve" smooth="yes"/>
      <point x="263" y="397" type="line"/>
      <point x="60" y="166" type="line" smooth="yes"/>
      <point x="54" y="160"/>
      <point x="50" y="148"/>
      <point x="50" y="140" type="curve" smooth="yes"/>
      <point x="50" y="0" type="line" smooth="yes"/>
      <point x="50" y="-22"/>
      <point x="68" y="-40"/>
      <point x="90" y="-40" type="curve" smooth="yes"/>
      <point x="112" y="-40"/>
      <point x="130" y="-22"/>
    </contour>
  </outline>
</glyph>
<glyph name="Z" format="1">
  <advance width="780"/>
  <unicode hex="005A"/>
  <outline>
    <contour>
      <point x="410" y="-40" type="curve" smooth="yes"/>
      <point x="690" y="-40" type="line" smooth="yes"/>
      <point x="712" y="-40"/>
      <point x="730" y="-22"/>
      <point x="730" y="0" type="curve" smooth="yes"/>
      <point x="730" y="22"/>
      <point x="712" y="40"/>
      <point x="690" y="40" type="curve" smooth="yes"/>
      <point x="429" y="40" type="line"/>
      <point x="249" y="258" type="line"/>
      <point x="496" y="422" type="line" smooth="yes"/>
      <point x="507" y="430"/>
      <point x="514" y="446"/>
      <point x="513" y="459" type="curve" smooth="yes"/>
      <point x="480" y="804" type="line" smooth="yes"/>
      <point x="478" y="824"/>
      <point x="460" y="840"/>
      <point x="440" y="840" type="curve" smooth="yes"/>
      <point x="90" y="840" type="line" smooth="yes"/>
      <point x="68" y="840"/>
      <point x="50" y="822"/>
      <point x="50" y="800" type="curve" smooth="yes"/>
      <point x="50" y="778"/>
      <point x="68" y="760"/>
      <point x="90" y="760" type="curve" smooth="yes"/>
      <point x="404" y="760" type="line"/>
      <point x="431" y="476" type="line"/>
      <point x="168" y="300" type="line" smooth="yes"/>
      <point x="148" y="286"/>
      <point x="144" y="260"/>
      <point x="159" y="241" type="curve" smooth="yes"/>
      <point x="379" y="-25" type="line" smooth="yes"/>
      <point x="386" y="-33"/>
      <point x="400" y="-40"/>
    </contour>
  </outline>
</glyph>
<glyph name="bracketleft" format="1">
  <advance width="480"/>
  <unicode hex="005B"/>
  <outline>
    <contour>
      <point x="300" y="-40" type="curve" smooth="yes"/>
      <point x="390" y="-40" type="line" smooth="yes"/>
      <point x="412" y="-40"/>
      <point x="430" y="-22"/>
      <point x="430" y="0" type="curve" smooth="yes"/>
      <point x="430" y="22"/>
      <point x="412" y="40"/>
      <point x="390" y="40" type="curve" smooth="yes"/>
      <point x="320" y="40" type="line"/>
      <point x="130" y="293" type="line"/>
      <point x="130" y="597" type="line"/>
      <point x="411" y="766" type="line" smooth="yes"/>
      <point x="429" y="777"/>
      <point x="435" y="802"/>
      <point x="424" y="821" type="curve" smooth="yes"/>
      <point x="413" y="839"/>
      <point x="388" y="845"/>
      <point x="369" y="834" type="curve" smooth="yes"/>
      <point x="69" y="654" type="line" smooth="yes"/>
      <point x="59" y="648"/>
      <point x="50" y="633"/>
      <point x="50" y="620" type="curve"/>
      <point x="50" y="280" type="line" smooth="yes"/>
      <point x="50" y="273"/>
      <point x="54" y="262"/>
      <point x="58" y="256" type="curve" smooth="yes"/>
      <point x="268" y="-24" type="line" smooth="yes"/>
      <point x="275" y="-33"/>
      <point x="289" y="-40"/>
    </contour>
  </outline>
</glyph>
<glyph name="bracketright" format="1">
  <advance width="480"/>
  <unicode hex="005D"/>
  <outline>
    <contour>
      <point x="90" y="-41" type="curve" smooth="yes"/>
      <point x="180" y="-41" type="line" smooth="yes"/>
      <point x="191" y="-41"/>
      <point x="205" y="-34"/>
      <point x="212" y="-25" type="curve" smooth="yes"/>
      <point x="422" y="255" type="line" smooth="yes"/>
      <point x="426" y="261"/>
      <point x="430" y="272"/>
      <point x="430" y="279" type="curve" smooth="yes"/>
      <point x="430" y="619" type="line" smooth="yes"/>
      <point x="430" y="632"/>
      <point x="421" y="647"/>
      <point x="411" y="653" type="curve" smooth="yes"/>
      <point x="111" y="833" type="line" smooth="yes"/>
      <point x="92" y="844"/>
      <point x="67" y="838"/>
      <point x="56" y="820" type="curve" smooth="yes"/>
      <point x="45" y="801"/>
      <point x="51" y="776"/>
      <point x="69" y="765" type="curve" smooth="yes"/>
      <point x="350" y="596" type="line"/>
      <point x="350" y="292" type="line"/>
      <point x="160" y="39" type="line"/>
      <point x="90" y="39" type="line" smooth="yes"/>
      <point x="68" y="39"/>
      <point x="50" y="21"/>
      <point x="50" y="-1" type="curve" smooth="yes"/>
      <point x="50" y="-23"/>
      <point x="68" y="-41"/>
    </contour>
  </outline>
</glyph>
<glyph name="asciicircum" format="1">
  <advance width="779"/>
  <unicode hex="005E"/>
  <outline>
    <contour>
      <point x="112" y="469" type="curve" smooth="yes"/>
      <point x="375" y="644" type="line"/>
      <point x="653" y="479" type="line"/>
      <point x="668" y="469" type="line" smooth="yes"/>
      <point x="686" y="457"/>
      <point x="711" y="462"/>
      <point x="723" y="480" type="curve" smooth="yes"/>
      <point x="735" y="498"/>
      <point x="730" y="523"/>
      <point x="712" y="535" type="curve" smooth="yes"/>
      <point x="694" y="548" type="line"/>
      <point x="394" y="725" type="line" smooth="yes"/>
      <point x="382" y="732"/>
      <point x="363" y="732"/>
      <point x="351" y="724" type="curve" smooth="yes"/>
      <point x="68" y="535" type="line" smooth="yes"/>
      <point x="50" y="523"/>
      <point x="45" y="498"/>
      <point x="57" y="480" type="curve" smooth="yes"/>
      <point x="69" y="462"/>
      <point x="94" y="457"/>
    </contour>
  </outline>
</glyph>
<glyph name="grave" format="1">
  <advance width="479"/>
  <unicode hex="0060"/>
  <outline>
    <contour>
      <point x="423" y="906" type="curve" smooth="yes"/>
      <point x="435" y="924"/>
      <point x="430" y="949"/>
      <point x="412" y="961" type="curve" smooth="yes"/>
      <point x="129" y="1150" type="line"/>
      <point x="112" y="1161" type="line" smooth="yes"/>
      <point x="94" y="1173"/>
      <point x="69" y="1168"/>
      <point x="57" y="1150" type="curve" smooth="yes"/>
      <point x="45" y="1132"/>
      <point x="50" y="1107"/>
      <point x="68" y="1095" type="curve" smooth="yes"/>
      <point x="84" y="1084" type="line"/>
      <point x="368" y="895" type="line" smooth="yes"/>
      <point x="386" y="883"/>
      <point x="411" y="888"/>
    </contour>
  </outline>
</glyph>
<glyph name="b" format="1">
  <advance width="772"/>
  <unicode hex="0062"/>
  <outline>
    <contour>
      <point x="370" y="-33" type="curve" smooth="yes"/>
      <point x="696" y="88" type="line" smooth="yes"/>
      <point x="722" y="98"/>
      <point x="731" y="127"/>
      <point x="713" y="150" type="curve" smooth="yes"/>
      <point x="530" y="392" type="line"/>
      <point x="714" y="675" type="line" smooth="yes"/>
      <point x="729" y="698"/>
      <point x="719" y="726"/>
      <point x="693" y="735" type="curve" smooth="yes"/>
      <point x="360" y="842" type="line" smooth="yes"/>
      <point x="348" y="846"/>
      <point x="330" y="842"/>
      <point x="321" y="834" type="curve" smooth="yes"/>
      <point x="63" y="598" type="line" smooth="yes"/>
      <point x="56" y="591"/>
      <point x="50" y="578"/>
      <point x="50" y="568" type="curve" smooth="yes"/>
      <point x="50" y="222" type="line" smooth="yes"/>
      <point x="50" y="211"/>
      <point x="57" y="197"/>
      <point x="65" y="191" type="curve" smooth="yes"/>
      <point x="331" y="-27" type="line" smooth="yes"/>
      <point x="340" y="-35"/>
      <point x="358" y="-38"/>
    </contour>
    <contour>
      <point x="468" y="444" type="line"/>
      <point x="130" y="444" type="line"/>
      <point x="130" y="551" type="line"/>
      <point x="358" y="759" type="line"/>
      <point x="618" y="675" type="line"/>
    </contour>
    <contour>
      <point x="617" y="144" type="line"/>
      <point x="364" y="50" type="line"/>
      <point x="130" y="241" type="line"/>
      <point x="130" y="364" type="line"/>
      <point x="450" y="364" type="line"/>
    </contour>
  </outline>
</glyph>
<glyph name="d" format="1">
  <advance width="780"/>
  <unicode hex="0064"/>
  <outline>
    <contour>
      <point x="231" y="-41" type="curve" smooth="yes"/>
      <point x="574" y="-34" type="line" smooth="yes"/>
      <point x="589" y="-34"/>
      <point x="606" y="-22"/>
      <point x="611" y="-8" type="curve" smooth="yes"/>
      <point x="728" y="315" type="line" smooth="yes"/>
      <point x="729" y="319"/>
      <point x="730" y="325"/>
      <point x="730" y="329" type="curve" smooth="yes"/>
      <point x="730" y="589" type="line" smooth="yes"/>
      <point x="730" y="591"/>
      <point x="730" y="593"/>
      <point x="730" y="594" type="curve"/>
      <point x="731" y="608"/>
      <point x="725" y="623"/>
      <point x="713" y="632" type="curve" smooth="yes"/>
      <point x="433" y="832" type="line" smooth="yes"/>
      <point x="423" y="839"/>
      <point x="405" y="841"/>
      <point x="394" y="836" type="curve" smooth="yes"/>
      <point x="74" y="696" type="line" smooth="yes"/>
      <point x="61" y="690"/>
      <point x="50" y="673"/>
      <point x="50" y="659" type="curve"/>
      <point x="50" y="319" type="line" smooth="yes"/>
      <point x="50" y="314"/>
      <point x="52" y="307"/>
      <point x="53" y="303" type="curve" smooth="yes"/>
      <point x="193" y="-17" type="line" smooth="yes"/>
      <point x="199" y="-31"/>
      <point x="216" y="-41"/>
    </contour>
    <contour>
      <point x="256" y="40" type="line"/>
      <point x="130" y="327" type="line"/>
      <point x="130" y="633" type="line"/>
      <point x="405" y="753" type="line"/>
      <point x="650" y="578" type="line"/>
      <point x="650" y="336" type="line"/>
      <point x="545" y="45" type="line"/>
    </contour>
  </outline>
</glyph>
<glyph name="e" format="1">
  <advance width="778"/>
  <unicode hex="0065"/>
  <outline>
    <contour>
      <point x="489" y="-40" type="line" smooth="yes"/>
      <point x="491" y="-40"/>
      <point x="493" y="-40"/>
      <point x="494" y="-40" type="curve"/>
      <point x="504" y="-39"/>
      <point x="512" y="-35"/>
      <point x="519" y="-28" type="curve" smooth="yes"/>
      <point x="717" y="168" type="line" smooth="yes"/>
      <point x="732" y="183"/>
      <point x="733" y="209"/>
      <point x="717" y="224" type="curve" smooth="yes"/>
      <point x="702" y="239"/>
      <point x="676" y="240"/>
      <point x="661" y="224" type="curve" smooth="yes"/>
      <point x="475" y="40" type="line"/>
      <point x="418" y="40" type="line"/>
      <point x="161" y="149" type="line"/>
      <point x="348" y="376" type="line" smooth="yes"/>
      <point x="360" y="391"/>
      <point x="360" y="414"/>
      <point x="347" y="428" type="curve" smooth="yes"/>
      <point x="157" y="643" type="line"/>
      <point x="402" y="754" type="line"/>
      <point x="665" y="569" type="line" smooth="yes"/>
      <point x="683" y="557"/>
      <point x="708" y="561"/>
      <point x="721" y="579" type="curve" smooth="yes"/>
      <point x="733" y="597"/>
      <point x="729" y="622"/>
      <point x="711" y="635" type="curve" smooth="yes"/>
      <point x="429" y="833" type="line" smooth="yes"/>
      <point x="419" y="840"/>
      <point x="401" y="842"/>
      <point x="390" y="836" type="curve" smooth="yes"/>
      <point x="75" y="694" type="line" smooth="yes"/>
      <point x="49" y="682"/>
      <point x="42" y="652"/>
      <point x="61" y="631" type="curve" smooth="yes"/>
      <point x="265" y="401" type="line"/>
      <point x="65" y="158" type="line" smooth="yes"/>
      <point x="47" y="137"/>
      <point x="54" y="107"/>
      <point x="80" y="96" type="curve" smooth="yes"/>
      <point x="395" y="-37" type="line" smooth="yes"/>
      <point x="399" y="-39"/>
      <point x="406" y="-40"/>
      <point x="410" y="-40" type="curve" smooth="yes"/>
    </contour>
  </outline>
</glyph>
<glyph name="f" format="1">
  <advance width="779"/>
  <unicode hex="0066"/>
  <outline>
    <contour>
      <point x="130" y="1" type="curve" smooth="yes"/>
      <point x="151" y="313" type="line" smooth="yes"/>
      <point x="151" y="315"/>
      <point x="151" y="317"/>
      <point x="151" y="318" type="curve" smooth="yes"/>
      <point x="134" y="636" type="line"/>
      <point x="403" y="758" type="line"/>
      <point x="666" y="573" type="line" smooth="yes"/>
      <point x="684" y="561"/>
      <point x="709" y="565"/>
      <point x="722" y="583" type="curve" smooth="yes"/>
      <point x="734" y="601"/>
      <point x="730" y="626"/>
      <point x="712" y="639" type="curve" smooth="yes"/>
      <point x="430" y="837" type="line" smooth="yes"/>
      <point x="420" y="844"/>
      <point x="402" y="846"/>
      <point x="391" y="840" type="curve" smooth="yes"/>
      <point x="76" y="698" type="line" smooth="yes"/>
      <point x="62" y="691"/>
      <point x="51" y="674"/>
      <point x="52" y="659" type="curve" smooth="yes"/>
      <point x="71" y="316" type="line"/>
      <point x="50" y="7" type="line" smooth="yes"/>
      <point x="49" y="-15"/>
      <point x="66" y="-34"/>
      <point x="87" y="-36" type="curve" smooth="yes"/>
      <point x="109" y="-37"/>
      <point x="128" y="-20"/>
    </contour>
    <contour>
      <point x="250" y="404" type="curve" smooth="yes"/>
      <point x="250" y="382"/>
      <point x="268" y="364"/>
      <point x="290" y="364" type="curve" smooth="yes"/>
      <point x="490" y="364" type="line" smooth="yes"/>
      <point x="512" y="364"/>
      <point x="530" y="382"/>
      <point x="530" y="404" type="curve" smooth="yes"/>
      <point x="530" y="426"/>
      <point x="512" y="444"/>
      <point x="490" y="444" type="curve" smooth="yes"/>
      <point x="290" y="444" type="line" smooth="yes"/>
      <point x="268" y="444"/>
      <point x="250" y="426"/>
    </contour>
  </outline>
</glyph>
<glyph name="j" format="1">
  <advance width="780"/>
  <unicode hex="006A"/>
  <outline>
    <contour>
      <point x="105" y="-38" type="curve" smooth="yes"/>
      <point x="398" y="78" type="line" smooth="yes"/>
      <point x="411" y="83"/>
      <point x="423" y="99"/>
      <point x="423" y="114" type="curve" smooth="yes"/>
      <point x="430" y="458" type="line" smooth="yes"/>
      <point x="430" y="460"/>
      <point x="430" y="463"/>
      <point x="430" y="465" type="curve" smooth="yes"/>
      <point x="386" y="759" type="line"/>
      <point x="690" y="759" type="line" smooth="yes"/>
      <point x="712" y="759"/>
      <point x="730" y="777"/>
      <point x="730" y="799" type="curve" smooth="yes"/>
      <point x="730" y="821"/>
      <point x="712" y="839"/>
      <point x="690" y="839" type="curve" smooth="yes"/>
      <point x="340" y="839" type="line" smooth="yes"/>
      <point x="315" y="839"/>
      <point x="297" y="818"/>
      <point x="300" y="793" type="curve" smooth="yes"/>
      <point x="350" y="457" type="line"/>
      <point x="344" y="142" type="line"/>
      <point x="75" y="36" type="line" smooth="yes"/>
      <point x="55" y="28"/>
      <point x="45" y="4"/>
      <point x="53" y="-16" type="curve" smooth="yes"/>
      <point x="61" y="-36"/>
      <point x="85" y="-46"/>
    </contour>
  </outline>
</glyph>
<glyph name="n" format="1">
  <advance width="780"/>
  <unicode hex="006E"/>
  <outline>
    <contour>
      <point x="130" y="-1" type="curve" smooth="yes"/>
      <point x="130" y="109" type="line"/>
      <point x="130" y="458" type="line"/>
      <point x="138" y="728" type="line"/>
      <point x="350" y="595" type="line"/>
      <point x="350" y="279" type="line" smooth="yes"/>
      <point x="350" y="266"/>
      <point x="359" y="251"/>
      <point x="369" y="245" type="curve" smooth="yes"/>
      <point x="669" y="65" type="line" smooth="yes"/>
      <point x="698" y="47"/>
      <point x="730" y="65"/>
      <point x="730" y="99" type="curve" smooth="yes"/>
      <point x="730" y="799" type="line" smooth="yes"/>
      <point x="730" y="821"/>
      <point x="712" y="839"/>
      <point x="690" y="839" type="curve" smooth="yes"/>
      <point x="668" y="839"/>
      <point x="650" y="821"/>
      <point x="650" y="799" type="curve" smooth="yes"/>
      <point x="650" y="170" type="line"/>
      <point x="430" y="302" type="line"/>
      <point x="430" y="617" type="line" smooth="yes"/>
      <point x="430" y="629"/>
      <point x="421" y="644"/>
      <point x="411" y="651" type="curve" smooth="yes"/>
      <point x="121" y="833" type="line" smooth="yes"/>
      <point x="93" y="851"/>
      <point x="61" y="834"/>
      <point x="60" y="800" type="curve" smooth="yes"/>
      <point x="50" y="460" type="line"/>
      <point x="50" y="109" type="line"/>
      <point x="50" y="-1" type="line" smooth="yes"/>
      <point x="50" y="-23"/>
      <point x="68" y="-41"/>
      <point x="90" y="-41" type="curve" smooth="yes"/>
      <point x="112" y="-41"/>
      <point x="130" y="-23"/>
    </contour>
  </outline>
</glyph>
<glyph name="r" format="1">
  <advance width="781"/>
  <unicode hex="0072"/>
  <outline>
    <contour>
      <point x="90" y="-44" type="curve" smooth="yes"/>
      <point x="112" y="-44"/>
      <point x="130" y="-26"/>
      <point x="130" y="-4" type="curve" smooth="yes"/>
      <point x="130" y="345" type="line"/>
      <point x="138" y="658" type="line"/>
      <point x="420" y="751" type="line"/>
      <point x="637" y="569" type="line"/>
      <point x="470" y="336" type="line"/>
      <point x="290" y="336" type="line"/>
      <point x="290" y="336" type="line" smooth="yes"/>
      <point x="170" y="336" type="line" smooth="yes"/>
      <point x="117" y="336"/>
      <point x="117" y="256"/>
      <point x="170" y="256" type="curve" smooth="yes"/>
      <point x="489" y="256" type="line"/>
      <point x="657" y="-25" type="line" smooth="yes"/>
      <point x="668" y="-43"/>
      <point x="693" y="-49"/>
      <point x="712" y="-38" type="curve" smooth="yes"/>
      <point x="730" y="-27"/>
      <point x="736" y="-2"/>
      <point x="725" y="17" type="curve" smooth="yes"/>
      <point x="550" y="310" type="line"/>
      <point x="724" y="553" type="line" smooth="yes"/>
      <point x="735" y="569"/>
      <point x="732" y="594"/>
      <point x="717" y="607" type="curve" smooth="yes"/>
      <point x="454" y="827" type="line" smooth="yes"/>
      <point x="445" y="835"/>
      <point x="428" y="838"/>
      <point x="416" y="834" type="curve" smooth="yes"/>
      <point x="86" y="725" type="line" smooth="yes"/>
      <point x="71" y="720"/>
      <point x="59" y="704"/>
      <point x="58" y="688" type="curve" smooth="yes"/>
      <point x="50" y="347" type="line"/>
      <point x="50" y="-4" type="line" smooth="yes"/>
      <point x="50" y="-26"/>
      <point x="68" y="-44"/>
    </contour>
  </outline>
</glyph>
<glyph name="s" format="1">
  <advance width="780"/>
  <unicode hex="0073"/>
  <outline>
    <contour>
      <point x="556" y="-31" type="line" smooth="yes"/>
      <point x="572" y="-31"/>
      <point x="589" y="-18"/>
      <point x="594" y="-3" type="curve" smooth="yes"/>
      <point x="699" y="327" type="line" smooth="yes"/>
      <point x="706" y="351"/>
      <point x="692" y="374"/>
      <point x="668" y="378" type="curve" smooth="yes"/>
      <point x="341" y="441" type="line"/>
      <point x="158" y="648" type="line"/>
      <point x="404" y="758" type="line"/>
      <point x="668" y="571" type="line" smooth="yes"/>
      <point x="686" y="559"/>
      <point x="711" y="563"/>
      <point x="724" y="581" type="curve" smooth="yes"/>
      <point x="736" y="599"/>
      <point x="732" y="624"/>
      <point x="714" y="637" type="curve" smooth="yes"/>
      <point x="432" y="837" type="line" smooth="yes"/>
      <point x="421" y="844"/>
      <point x="404" y="846"/>
      <point x="392" y="841" type="curve" smooth="yes"/>
      <point x="76" y="699" type="line" smooth="yes"/>
      <point x="50" y="688"/>
      <point x="43" y="658"/>
      <point x="62" y="636" type="curve" smooth="yes"/>
      <point x="290" y="378" type="line" smooth="yes"/>
      <point x="295" y="372"/>
      <point x="305" y="366"/>
      <point x="313" y="365" type="curve" smooth="yes"/>
      <point x="609" y="308" type="line"/>
      <point x="527" y="50" type="line"/>
      <point x="229" y="51" type="line"/>
      <point x="124" y="225" type="line" smooth="yes"/>
      <point x="113" y="243"/>
      <point x="88" y="249"/>
      <point x="69" y="238" type="curve" smooth="yes"/>
      <point x="51" y="227"/>
      <point x="45" y="202"/>
      <point x="56" y="183" type="curve" smooth="yes"/>
      <point x="172" y="-10" type="line" smooth="yes"/>
      <point x="179" y="-20"/>
      <point x="194" y="-29"/>
      <point x="206" y="-29" type="curve" smooth="yes"/>
    </contour>
  </outline>
</glyph>
<glyph name="t" format="1">
  <advance width="492"/>
  <unicode hex="0074"/>
  <outline>
    <contour>
      <point x="390" y="-40" type="curve" smooth="yes"/>
      <point x="412" y="-40"/>
      <point x="430" y="-22"/>
      <point x="430" y="0" type="curve" smooth="yes"/>
      <point x="430" y="350" type="line"/>
      <point x="442" y="695" type="line" smooth="yes"/>
      <point x="443" y="712"/>
      <point x="431" y="729"/>
      <point x="415" y="735" type="curve" smooth="yes"/>
      <point x="103" y="838" type="line" smooth="yes"/>
      <point x="82" y="845"/>
      <point x="59" y="833"/>
      <point x="52" y="813" type="curve" smooth="yes"/>
      <point x="45" y="792"/>
      <point x="57" y="769"/>
      <point x="77" y="762" type="curve" smooth="yes"/>
      <point x="361" y="668" type="line"/>
      <point x="350" y="350" type="line"/>
      <point x="350" y="0" type="line" smooth="yes"/>
      <point x="350" y="-22"/>
      <point x="368" y="-40"/>
    </contour>
  </outline>
</glyph>
<glyph name="v" format="1">
  <advance width="780"/>
  <unicode hex="0076"/>
  <outline>
    <contour>
      <point x="594" y="-10" type="curve" smooth="yes"/>
      <point x="727" y="304" type="line" smooth="yes"/>
      <point x="729" y="309"/>
      <point x="730" y="316"/>
      <point x="730" y="320" type="curve" smooth="yes"/>
      <point x="730" y="800" type="line" smooth="yes"/>
      <point x="730" y="822"/>
      <point x="712" y="840"/>
      <point x="690" y="840" type="curve" smooth="yes"/>
      <point x="668" y="840"/>
      <point x="650" y="822"/>
      <point x="650" y="800" type="curve" smooth="yes"/>
      <point x="650" y="328" type="line"/>
      <point x="536" y="59" type="line"/>
      <point x="277" y="179" type="line"/>
      <point x="130" y="460" type="line"/>
      <point x="130" y="800" type="line" smooth="yes"/>
      <point x="130" y="822"/>
      <point x="112" y="840"/>
      <point x="90" y="840" type="curve" smooth="yes"/>
      <point x="68" y="840"/>
      <point x="50" y="822"/>
      <point x="50" y="800" type="curve" smooth="yes"/>
      <point x="50" y="450" type="line" smooth="yes"/>
      <point x="50" y="445"/>
      <point x="52" y="436"/>
      <point x="55" y="431" type="curve" smooth="yes"/>
      <point x="212" y="130" type="line" smooth="yes"/>
      <point x="216" y="123"/>
      <point x="224" y="115"/>
      <point x="231" y="112" type="curve" smooth="yes"/>
      <point x="540" y="-31" type="line" smooth="yes"/>
      <point x="561" y="-40"/>
      <point x="585" y="-31"/>
    </contour>
  </outline>
</glyph>
<glyph name="y" format="1">
  <advance width="779"/>
  <unicode hex="0079"/>
  <outline>
    <contour>
      <point x="389" y="-40" type="line" smooth="yes"/>
      <point x="395" y="-40"/>
      <point x="404" y="-38"/>
      <point x="409" y="-35" type="curve" smooth="yes"/>
      <point x="708" y="132" type="line" smooth="yes"/>
      <point x="720" y="138"/>
      <point x="729" y="154"/>
      <point x="729" y="168" type="curve" smooth="yes"/>
      <point x="719" y="509" type="line" smooth="yes"/>
      <point x="718" y="545"/>
      <point x="683" y="561"/>
      <point x="655" y="540" type="curve" smooth="yes"/>
      <point x="398" y="345" type="line"/>
      <point x="131" y="479" type="line"/>
      <point x="130" y="798" type="line" smooth="yes"/>
      <point x="130" y="820"/>
      <point x="111" y="838"/>
      <point x="90" y="838" type="curve" smooth="yes"/>
      <point x="68" y="838"/>
      <point x="50" y="819"/>
      <point x="50" y="798" type="curve" smooth="yes"/>
      <point x="51" y="455" type="line" smooth="yes"/>
      <point x="51" y="441"/>
      <point x="61" y="425"/>
      <point x="73" y="419" type="curve" smooth="yes"/>
      <point x="385" y="262" type="line" smooth="yes"/>
      <point x="397" y="256"/>
      <point x="416" y="258"/>
      <point x="427" y="266" type="curve" smooth="yes"/>
      <point x="641" y="429" type="line"/>
      <point x="648" y="190" type="line"/>
      <point x="379" y="40" type="line"/>
      <point x="90" y="41" type="line" smooth="yes"/>
      <point x="69" y="41"/>
      <point x="50" y="23"/>
      <point x="50" y="1" type="curve" smooth="yes"/>
      <point x="50" y="-20"/>
      <point x="68" y="-39"/>
      <point x="90" y="-39" type="curve" smooth="yes"/>
    </contour>
  </outline>
</glyph>
<glyph name="braceleft" format="1">
  <advance width="485"/>
  <unicode hex="007B"/>
  <outline>
    <contour>
      <point x="305" y="-42" type="curve" smooth="yes"/>
      <point x="395" y="-42" type="line" smooth="yes"/>
      <point x="417" y="-42"/>
      <point x="435" y="-24"/>
      <point x="435" y="-2" type="curve" smooth="yes"/>
      <point x="435" y="20"/>
      <point x="417" y="38"/>
      <point x="395" y="38" type="curve" smooth="yes"/>
      <point x="325" y="38" type="line"/>
      <point x="130" y="287" type="line"/>
      <point x="135" y="596" type="line"/>
      <point x="416" y="764" type="line" smooth="yes"/>
      <point x="434" y="775"/>
      <point x="440" y="800"/>
      <point x="429" y="819" type="curve" smooth="yes"/>
      <point x="418" y="837"/>
      <point x="393" y="843"/>
      <point x="374" y="832" type="curve" smooth="yes"/>
      <point x="75" y="653" type="line" smooth="yes"/>
      <point x="64" y="647"/>
      <point x="55" y="632"/>
      <point x="55" y="619" type="curve" smooth="yes"/>
      <point x="50" y="274" type="line" smooth="yes"/>
      <point x="50" y="266"/>
      <point x="54" y="255"/>
      <point x="58" y="249" type="curve" smooth="yes"/>
      <point x="273" y="-27" type="line" smooth="yes"/>
      <point x="280" y="-35"/>
      <point x="294" y="-42"/>
    </contour>
  </outline>
</glyph>
<glyph name="bar" format="1">
  <advance width="180"/>
  <unicode hex="007C"/>
  <outline>
    <contour>
      <point x="90" y="-39" type="curve" smooth="yes"/>
      <point x="112" y="-39"/>
      <point x="130" y="-21"/>
      <point x="130" y="1" type="curve" smooth="yes"/>
      <point x="130" y="801" type="line" smooth="yes"/>
      <point x="130" y="823"/>
      <point x="112" y="841"/>
      <point x="90" y="841" type="curve" smooth="yes"/>
      <point x="68" y="841"/>
      <point x="50" y="823"/>
      <point x="50" y="801" type="curve" smooth="yes"/>
      <point x="50" y="1" type="line" smooth="yes"/>
      <point x="50" y="-21"/>
      <point x="68" y="-39"/>
    </contour>
  </outline>
</glyph>
<glyph name="braceright" format="1">
  <advance width="485"/>
  <unicode hex="007D"/>
  <outline>
    <contour>
      <point x="90" y="-41" type="curve" smooth="yes"/>
      <point x="180" y="-41" type="line" smooth="yes"/>
      <point x="191" y="-41"/>
      <point x="205" y="-34"/>
      <point x="212" y="-26" type="curve" smooth="yes"/>
      <point x="427" y="250" type="line" smooth="yes"/>
      <point x="431" y="256"/>
      <point x="435" y="267"/>
      <point x="435" y="275" type="curve" smooth="yes"/>
      <point x="430" y="620" type="line" smooth="yes"/>
      <point x="430" y="633"/>
      <point x="421" y="648"/>
      <point x="410" y="654" type="curve" smooth="yes"/>
      <point x="111" y="833" type="line" smooth="yes"/>
      <point x="92" y="844"/>
      <point x="67" y="838"/>
      <point x="56" y="820" type="curve" smooth="yes"/>
      <point x="45" y="801"/>
      <point x="51" y="776"/>
      <point x="69" y="765" type="curve" smooth="yes"/>
      <point x="350" y="597" type="line"/>
      <point x="355" y="288" type="line"/>
      <point x="160" y="39" type="line"/>
      <point x="90" y="39" type="line" smooth="yes"/>
      <point x="68" y="39"/>
      <point x="50" y="21"/>
      <point x="50" y="-1" type="curve" smooth="yes"/>
      <point x="50" y="-23"/>
      <point x="68" y="-41"/>
    </contour>
  </outline>
</glyph>
<glyph name="asciitilde" format="1">
  <advance width="780"/>
  <unicode hex="007E"/>
  <outline>
    <contour>
      <point x="113" y="70" type="curve" smooth="yes"/>
      <point x="383" y="263" type="line"/>
      <point x="690" y="263" type="line" smooth="yes"/>
      <point x="712" y="263"/>
      <point x="730" y="281"/>
      <point x="730" y="303" type="curve" smooth="yes"/>
      <point x="730" y="325"/>
      <point x="712" y="343"/>
      <point x="690" y="343" type="curve" smooth="yes"/>
      <point x="370" y="343" type="line" smooth="yes"/>
      <point x="363" y="343"/>
      <point x="353" y="340"/>
      <point x="347" y="336" type="curve" smooth="yes"/>
      <point x="67" y="136" type="line" smooth="yes"/>
      <point x="49" y="123"/>
      <point x="45" y="97"/>
      <point x="57" y="80" type="curve" smooth="yes"/>
      <point x="70" y="62"/>
      <point x="96" y="58"/>
    </contour>
  </outline>
</glyph>
<glyph name="cent" format="1">
  <advance width="525"/>
  <unicode hex="00A2"/>
  <outline>
    <contour>
      <point x="374" y="-100" type="curve" smooth="yes"/>
      <point x="374" y="-37" type="line"/>
      <point x="432" y="-40" type="line" smooth="yes"/>
      <point x="454" y="-41"/>
      <point x="473" y="-24"/>
      <point x="474" y="-2" type="curve" smooth="yes"/>
      <point x="475" y="20"/>
      <point x="458" y="39"/>
      <point x="436" y="40" type="curve" smooth="yes"/>
      <point x="167" y="54" type="line"/>
      <point x="134" y="327" type="line"/>
      <point x="438" y="360" type="line" smooth="yes"/>
      <point x="460" y="363"/>
      <point x="476" y="383"/>
      <point x="474" y="404" type="curve" smooth="yes"/>
      <point x="471" y="426"/>
      <point x="451" y="442"/>
      <point x="430" y="440" type="curve" smooth="yes"/>
      <point x="374" y="434" type="line"/>
      <point x="374" y="500" type="line" smooth="yes"/>
      <point x="374" y="522"/>
      <point x="356" y="540"/>
      <point x="334" y="540" type="curve" smooth="yes"/>
      <point x="312" y="540"/>
      <point x="294" y="522"/>
      <point x="294" y="500" type="curve" smooth="yes"/>
      <point x="294" y="425" type="line"/>
      <point x="85" y="402" type="line" smooth="yes"/>
      <point x="63" y="400"/>
      <point x="47" y="380"/>
      <point x="50" y="358" type="curve" smooth="yes"/>
      <point x="91" y="11" type="line" smooth="yes"/>
      <point x="94" y="-8"/>
      <point x="110" y="-23"/>
      <point x="129" y="-24" type="curve" smooth="yes"/>
      <point x="294" y="-33" type="line"/>
      <point x="294" y="-100" type="line" smooth="yes"/>
      <point x="294" y="-122"/>
      <point x="312" y="-140"/>
      <point x="334" y="-140" type="curve" smooth="yes"/>
      <point x="356" y="-140"/>
      <point x="374" y="-122"/>
    </contour>
  </outline>
</glyph>
<glyph name="sterling" format="1">
  <advance width="530"/>
  <unicode hex="00A3"/>
  <outline>
    <contour>
      <point x="91" y="-39" type="curve" smooth="yes"/>
      <point x="440" y="-39" type="line" smooth="yes"/>
      <point x="462" y="-39"/>
      <point x="480" y="-21"/>
      <point x="480" y="1" type="curve" smooth="yes"/>
      <point x="480" y="23"/>
      <point x="462" y="41"/>
      <point x="440" y="41" type="curve" smooth="yes"/>
      <point x="154" y="41" type="line"/>
      <point x="276" y="297" type="line" smooth="yes"/>
      <point x="278" y="302"/>
      <point x="280" y="309"/>
      <point x="280" y="314" type="curve" smooth="yes"/>
      <point x="280" y="361" type="line"/>
      <point x="390" y="361" type="line" smooth="yes"/>
      <point x="412" y="361"/>
      <point x="430" y="379"/>
      <point x="430" y="401" type="curve" smooth="yes"/>
      <point x="430" y="423"/>
      <point x="412" y="441"/>
      <point x="390" y="441" type="curve" smooth="yes"/>
      <point x="281" y="441" type="line"/>
      <point x="283" y="631" type="line"/>
      <point x="464" y="769" type="line" smooth="yes"/>
      <point x="481" y="782"/>
      <point x="485" y="808"/>
      <point x="472" y="825" type="curve" smooth="yes"/>
      <point x="459" y="842"/>
      <point x="433" y="846"/>
      <point x="416" y="833" type="curve" smooth="yes"/>
      <point x="219" y="683" type="line" smooth="yes"/>
      <point x="210" y="676"/>
      <point x="203" y="662"/>
      <point x="203" y="652" type="curve" smooth="yes"/>
      <point x="201" y="441" type="line"/>
      <point x="90" y="441" type="line" smooth="yes"/>
      <point x="68" y="441"/>
      <point x="50" y="423"/>
      <point x="50" y="401" type="curve" smooth="yes"/>
      <point x="50" y="379"/>
      <point x="68" y="361"/>
      <point x="90" y="361" type="curve" smooth="yes"/>
      <point x="200" y="361" type="line"/>
      <point x="200" y="324" type="line"/>
      <point x="54" y="18" type="line" smooth="yes"/>
      <point x="41" y="-10"/>
      <point x="59" y="-39"/>
    </contour>
  </outline>
</glyph>
<glyph name="section" format="1">
  <advance width="780"/>
  <unicode hex="00A7"/>
  <outline>
    <contour>
      <point x="527" y="277" type="line"/>
      <point x="402" y="340" type="line"/>
      <point x="253" y="529" type="line"/>
      <point x="378" y="466" type="line"/>
    </contour>
    <contour>
      <point x="398" y="-33" type="curve" smooth="yes"/>
      <point x="704" y="117" type="line" smooth="yes"/>
      <point x="737" y="133"/>
      <point x="737" y="173"/>
      <point x="705" y="189" type="curve" smooth="yes"/>
      <point x="654" y="214" type="line"/>
      <point x="659" y="226"/>
      <point x="657" y="241"/>
      <point x="648" y="252" type="curve" smooth="yes"/>
      <point x="436" y="523" type="line" smooth="yes"/>
      <point x="433" y="527"/>
      <point x="427" y="532"/>
      <point x="422" y="534" type="curve" smooth="yes"/>
      <point x="184" y="653" type="line"/>
      <point x="397" y="757" type="line"/>
      <point x="654" y="585" type="line"/>
      <point x="661" y="572"/>
      <point x="675" y="563"/>
      <point x="690" y="563" type="curve" smooth="yes"/>
      <point x="712" y="563"/>
      <point x="730" y="581"/>
      <point x="730" y="603" type="curve" smooth="yes"/>
      <point x="730" y="610" type="line" smooth="yes"/>
      <point x="730" y="621"/>
      <point x="722" y="636"/>
      <point x="712" y="643" type="curve" smooth="yes"/>
      <point x="422" y="836" type="line" smooth="yes"/>
      <point x="412" y="843"/>
      <point x="394" y="845"/>
      <point x="382" y="839" type="curve" smooth="yes"/>
      <point x="76" y="689" type="line" smooth="yes"/>
      <point x="43" y="673"/>
      <point x="43" y="633"/>
      <point x="75" y="617" type="curve" smooth="yes"/>
      <point x="126" y="592" type="line"/>
      <point x="121" y="580"/>
      <point x="123" y="565"/>
      <point x="132" y="554" type="curve" smooth="yes"/>
      <point x="344" y="283" type="line" smooth="yes"/>
      <point x="347" y="279"/>
      <point x="353" y="274"/>
      <point x="358" y="272" type="curve" smooth="yes"/>
      <point x="596" y="153" type="line"/>
      <point x="383" y="49" type="line"/>
      <point x="126" y="221" type="line"/>
      <point x="119" y="234"/>
      <point x="105" y="243"/>
      <point x="90" y="243" type="curve" smooth="yes"/>
      <point x="68" y="243"/>
      <point x="50" y="225"/>
      <point x="50" y="203" type="curve" smooth="yes"/>
      <point x="50" y="196" type="line" smooth="yes"/>
      <point x="50" y="185"/>
      <point x="58" y="170"/>
      <point x="68" y="163" type="curve" smooth="yes"/>
      <point x="358" y="-30" type="line" smooth="yes"/>
      <point x="368" y="-37"/>
      <point x="386" y="-39"/>
    </contour>
  </outline>
</glyph>
<glyph name="guillemotleft" format="1">
  <advance width="437"/>
  <unicode hex="00AB"/>
  <outline>
    <contour>
      <point x="375" y="-31" type="curve" smooth="yes"/>
      <point x="391" y="-16"/>
      <point x="391" y="10"/>
      <point x="375" y="25" type="curve" smooth="yes"/>
      <point x="333" y="68" type="line"/>
      <point x="386" y="390" type="line" smooth="yes"/>
      <point x="390" y="412"/>
      <point x="375" y="433"/>
      <point x="354" y="436" type="curve" smooth="yes"/>
      <point x="332" y="440"/>
      <point x="311" y="425"/>
      <point x="308" y="404" type="curve" smooth="yes"/>
      <point x="250" y="61" type="line" smooth="yes"/>
      <point x="249" y="50"/>
      <point x="254" y="34"/>
      <point x="262" y="26" type="curve" smooth="yes"/>
      <point x="319" y="-31" type="line" smooth="yes"/>
      <point x="334" y="-47"/>
      <point x="360" y="-47"/>
    </contour>
    <contour>
      <point x="175" y="-31" type="curve" smooth="yes"/>
      <point x="191" y="-16"/>
      <point x="191" y="10"/>
      <point x="175" y="25" type="curve" smooth="yes"/>
      <point x="133" y="68" type="line"/>
      <point x="186" y="390" type="line" smooth="yes"/>
      <point x="190" y="412"/>
      <point x="175" y="433"/>
      <point x="154" y="436" type="curve" smooth="yes"/>
      <point x="132" y="440"/>
      <point x="111" y="425"/>
      <point x="108" y="404" type="curve" smooth="yes"/>
      <point x="50" y="61" type="line" smooth="yes"/>
      <point x="49" y="50"/>
      <point x="54" y="34"/>
      <point x="62" y="26" type="curve" smooth="yes"/>
      <point x="119" y="-31" type="line" smooth="yes"/>
      <point x="134" y="-47"/>
      <point x="160" y="-47"/>
    </contour>
  </outline>
</glyph>
<glyph name="plusminus" format="1">
  <advance width="580"/>
  <unicode hex="00B1"/>
  <outline>
    <contour>
      <point x="290" y="157" type="curve" smooth="yes"/>
      <point x="312" y="157"/>
      <point x="330" y="175"/>
      <point x="330" y="197" type="curve" smooth="yes"/>
      <point x="330" y="357" type="line"/>
      <point x="490" y="357" type="line" smooth="yes"/>
      <point x="512" y="357"/>
      <point x="530" y="375"/>
      <point x="530" y="397" type="curve" smooth="yes"/>
      <point x="530" y="419"/>
      <point x="512" y="437"/>
      <point x="490" y="437" type="curve" smooth="yes"/>
      <point x="330" y="437" type="line"/>
      <point x="330" y="597" type="line" smooth="yes"/>
      <point x="330" y="619"/>
      <point x="312" y="637"/>
      <point x="290" y="637" type="curve" smooth="yes"/>
      <point x="268" y="637"/>
      <point x="250" y="619"/>
      <point x="250" y="597" type="curve" smooth="yes"/>
      <point x="250" y="437" type="line"/>
      <point x="90" y="437" type="line" smooth="yes"/>
      <point x="68" y="437"/>
      <point x="50" y="419"/>
      <point x="50" y="397" type="curve" smooth="yes"/>
      <point x="50" y="375"/>
      <point x="68" y="357"/>
      <point x="90" y="357" type="curve" smooth="yes"/>
      <point x="250" y="357" type="line"/>
      <point x="250" y="197" type="line" smooth="yes"/>
      <point x="250" y="175"/>
      <point x="268" y="157"/>
    </contour>
    <contour>
      <point x="90" y="-43" type="curve" smooth="yes"/>
      <point x="490" y="-43" type="line" smooth="yes"/>
      <point x="512" y="-43"/>
      <point x="530" y="-25"/>
      <point x="530" y="-3" type="curve" smooth="yes"/>
      <point x="530" y="19"/>
      <point x="512" y="37"/>
      <point x="490" y="37" type="curve" smooth="yes"/>
      <point x="90" y="37" type="line" smooth="yes"/>
      <point x="68" y="37"/>
      <point x="50" y="19"/>
      <point x="50" y="-3" type="curve" smooth="yes"/>
      <point x="50" y="-25"/>
      <point x="68" y="-43"/>
    </contour>
  </outline>
</glyph>
<glyph name="paragraph" format="1">
  <advance width="638"/>
  <unicode hex="00B6"/>
  <outline>
    <contour>
      <point x="548" y="-40" type="curve" smooth="yes"/>
      <point x="570" y="-40"/>
      <point x="588" y="-22"/>
      <point x="588" y="0" type="curve" smooth="yes"/>
      <point x="588" y="480" type="line" smooth="yes"/>
      <point x="588" y="484"/>
      <point x="587" y="490"/>
      <point x="585" y="494" type="curve" smooth="yes"/>
      <point x="465" y="814" type="line" smooth="yes"/>
      <point x="459" y="831"/>
      <point x="440" y="842"/>
      <point x="422" y="840" type="curve" smooth="yes"/>
      <point x="84" y="789" type="line" smooth="yes"/>
      <point x="61" y="785"/>
      <point x="47" y="764"/>
      <point x="51" y="742" type="curve" smooth="yes"/>
      <point x="117" y="401" type="line" smooth="yes"/>
      <point x="125" y="363"/>
      <point x="168" y="355"/>
      <point x="190" y="387" type="curve" smooth="yes"/>
      <point x="308" y="566" type="line"/>
      <point x="308" y="0" type="line" smooth="yes"/>
      <point x="308" y="-22"/>
      <point x="326" y="-40"/>
      <point x="348" y="-40" type="curve" smooth="yes"/>
      <point x="370" y="-40"/>
      <point x="388" y="-22"/>
      <point x="388" y="0" type="curve" smooth="yes"/>
      <point x="388" y="700" type="line" smooth="yes"/>
      <point x="388" y="743"/>
      <point x="338" y="758"/>
      <point x="315" y="722" type="curve" smooth="yes"/>
      <point x="177" y="513" type="line"/>
      <point x="137" y="716" type="line"/>
      <point x="402" y="756" type="line"/>
      <point x="508" y="473" type="line"/>
      <point x="508" y="0" type="line" smooth="yes"/>
      <point x="508" y="-22"/>
      <point x="526" y="-40"/>
    </contour>
  </outline>
</glyph>
<glyph name="guillemotright" format="1">
  <advance width="437"/>
  <unicode hex="00BB"/>
  <outline>
    <contour>
      <point x="118" y="-27" type="curve" smooth="yes"/>
      <point x="175" y="30" type="line" smooth="yes"/>
      <point x="183" y="38"/>
      <point x="188" y="54"/>
      <point x="187" y="65" type="curve" smooth="yes"/>
      <point x="129" y="408" type="line" smooth="yes"/>
      <point x="126" y="429"/>
      <point x="105" y="444"/>
      <point x="83" y="440" type="curve" smooth="yes"/>
      <point x="62" y="437"/>
      <point x="47" y="416"/>
      <point x="51" y="394" type="curve" smooth="yes"/>
      <point x="104" y="72" type="line"/>
      <point x="62" y="29" type="line" smooth="yes"/>
      <point x="46" y="14"/>
      <point x="46" y="-12"/>
      <point x="62" y="-27" type="curve" smooth="yes"/>
      <point x="77" y="-43"/>
      <point x="103" y="-43"/>
    </contour>
    <contour>
      <point x="318" y="-27" type="curve" smooth="yes"/>
      <point x="375" y="30" type="line" smooth="yes"/>
      <point x="383" y="38"/>
      <point x="388" y="54"/>
      <point x="387" y="65" type="curve" smooth="yes"/>
      <point x="329" y="408" type="line" smooth="yes"/>
      <point x="326" y="429"/>
      <point x="305" y="444"/>
      <point x="283" y="440" type="curve" smooth="yes"/>
      <point x="262" y="437"/>
      <point x="247" y="416"/>
      <point x="251" y="394" type="curve" smooth="yes"/>
      <point x="304" y="72" type="line"/>
      <point x="262" y="29" type="line" smooth="yes"/>
      <point x="246" y="14"/>
      <point x="246" y="-12"/>
      <point x="262" y="-27" type="curve" smooth="yes"/>
      <point x="277" y="-43"/>
      <point x="303" y="-43"/>
    </contour>
  </outline>
</glyph>
<glyph name="Agrave" format="1">
  <advance width="780"/>
  <unicode hex="00C0"/>
  <outline>
    <contour>
      <point x="423" y="906" type="curve" smooth="yes"/>
      <point x="435" y="924"/>
      <point x="430" y="949"/>
      <point x="412" y="961" type="curve" smooth="yes"/>
      <point x="129" y="1150" type="line"/>
      <point x="112" y="1161" type="line" smooth="yes"/>
      <point x="94" y="1173"/>
      <point x="69" y="1168"/>
      <point x="57" y="1150" type="curve" smooth="yes"/>
      <point x="45" y="1132"/>
      <point x="50" y="1107"/>
      <point x="68" y="1095" type="curve" smooth="yes"/>
      <point x="84" y="1084" type="line"/>
      <point x="368" y="895" type="line" smooth="yes"/>
      <point x="386" y="883"/>
      <point x="411" y="888"/>
    </contour>
    <contour>
      <point x="690" y="-44" type="curve" smooth="yes"/>
      <point x="712" y="-44"/>
      <point x="730" y="-26"/>
      <point x="730" y="-4" type="curve" smooth="yes"/>
      <point x="730" y="499" type="line" smooth="yes"/>
      <point x="730" y="506"/>
      <point x="727" y="515"/>
      <point x="724" y="520" type="curve" smooth="yes"/>
      <point x="543" y="817" type="line" smooth="yes"/>
      <point x="536" y="828"/>
      <point x="520" y="836"/>
      <point x="506" y="836" type="curve" smooth="yes"/>
      <point x="172" y="816" type="line" smooth="yes"/>
      <point x="155" y="815"/>
      <point x="139" y="802"/>
      <point x="135" y="786" type="curve" smooth="yes"/>
      <point x="51" y="449" type="line" smooth="yes"/>
      <point x="50" y="446"/>
      <point x="50" y="441"/>
      <point x="50" y="438" type="curve" smooth="yes"/>
      <point x="55" y="98" type="line" smooth="yes"/>
      <point x="55" y="59"/>
      <point x="96" y="43"/>
      <point x="123" y="70" type="curve" smooth="yes"/>
      <point x="357" y="306" type="line"/>
      <point x="650" y="306" type="line"/>
      <point x="650" y="-4" type="line" smooth="yes"/>
      <point x="650" y="-26"/>
      <point x="668" y="-44"/>
    </contour>
    <contour>
      <point x="312" y="374" type="curve" smooth="yes"/>
      <point x="133" y="194" type="line"/>
      <point x="130" y="434" type="line"/>
      <point x="206" y="738" type="line"/>
      <point x="487" y="754" type="line"/>
      <point x="650" y="488" type="line"/>
      <point x="650" y="386" type="line"/>
      <point x="340" y="386" type="line" smooth="yes"/>
      <point x="331" y="386"/>
      <point x="318" y="381"/>
    </contour>
  </outline>
</glyph>
<glyph name="Egrave" format="1">
  <advance width="784"/>
  <unicode hex="00C8"/>
  <outline>
    <contour>
      <point x="423" y="906" type="curve" smooth="yes"/>
      <point x="435" y="924"/>
      <point x="430" y="949"/>
      <point x="412" y="961" type="curve" smooth="yes"/>
      <point x="129" y="1150" type="line"/>
      <point x="112" y="1161" type="line" smooth="yes"/>
      <point x="94" y="1173"/>
      <point x="69" y="1168"/>
      <point x="57" y="1150" type="curve" smooth="yes"/>
      <point x="45" y="1132"/>
      <point x="50" y="1107"/>
      <point x="68" y="1095" type="curve" smooth="yes"/>
      <point x="84" y="1084" type="line"/>
      <point x="368" y="895" type="line" smooth="yes"/>
      <point x="386" y="883"/>
      <point x="411" y="888"/>
    </contour>
    <contour>
      <point x="495" y="-40" type="line" smooth="yes"/>
      <point x="497" y="-40"/>
      <point x="499" y="-40"/>
      <point x="500" y="-40" type="curve"/>
      <point x="510" y="-39"/>
      <point x="518" y="-35"/>
      <point x="525" y="-28" type="curve" smooth="yes"/>
      <point x="723" y="168" type="line" smooth="yes"/>
      <point x="738" y="183"/>
      <point x="739" y="209"/>
      <point x="723" y="224" type="curve" smooth="yes"/>
      <point x="708" y="239"/>
      <point x="682" y="240"/>
      <point x="667" y="224" type="curve" smooth="yes"/>
      <point x="481" y="40" type="line"/>
      <point x="424" y="40" type="line"/>
      <point x="167" y="149" type="line"/>
      <point x="354" y="376" type="line" smooth="yes"/>
      <point x="366" y="391"/>
      <point x="366" y="414"/>
      <point x="353" y="428" type="curve" smooth="yes"/>
      <point x="163" y="643" type="line"/>
      <point x="408" y="754" type="line"/>
      <point x="671" y="569" type="line" smooth="yes"/>
      <point x="689" y="557"/>
      <point x="714" y="561"/>
      <point x="727" y="579" type="curve" smooth="yes"/>
      <point x="739" y="597"/>
      <point x="735" y="622"/>
      <point x="717" y="635" type="curve" smooth="yes"/>
      <point x="435" y="833" type="line" smooth="yes"/>
      <point x="425" y="840"/>
      <point x="407" y="842"/>
      <point x="396" y="836" type="curve" smooth="yes"/>
      <point x="81" y="694" type="line" smooth="yes"/>
      <point x="55" y="682"/>
      <point x="48" y="652"/>
      <point x="67" y="631" type="curve" smooth="yes"/>
      <point x="271" y="401" type="line"/>
      <point x="71" y="158" type="line" smooth="yes"/>
      <point x="53" y="137"/>
      <point x="60" y="107"/>
      <point x="86" y="96" type="curve" smooth="yes"/>
      <point x="401" y="-37" type="line" smooth="yes"/>
      <point x="405" y="-39"/>
      <point x="412" y="-40"/>
      <point x="416" y="-40" type="curve" smooth="yes"/>
    </contour>
  </outline>
</glyph>
<glyph name="Igrave" format="1">
  <advance width="780"/>
  <unicode hex="00CC"/>
  <outline>
    <contour>
      <point x="427" y="906" type="curve" smooth="yes"/>
      <point x="439" y="924"/>
      <point x="434" y="949"/>
      <point x="416" y="961" type="curve" smooth="yes"/>
      <point x="133" y="1150" type="line"/>
      <point x="116" y="1161" type="line" smooth="yes"/>
      <point x="98" y="1173"/>
      <point x="73" y="1168"/>
      <point x="61" y="1150" type="curve" smooth="yes"/>
      <point x="49" y="1132"/>
      <point x="54" y="1107"/>
      <point x="72" y="1095" type="curve" smooth="yes"/>
      <point x="88" y="1084" type="line"/>
      <point x="372" y="895" type="line" smooth="yes"/>
      <point x="390" y="883"/>
      <point x="415" y="888"/>
    </contour>
    <contour>
      <point x="90" y="-41" type="curve" smooth="yes"/>
      <point x="440" y="-41" type="line" smooth="yes"/>
      <point x="465" y="-41"/>
      <point x="483" y="-20"/>
      <point x="480" y="5" type="curve" smooth="yes"/>
      <point x="430" y="342" type="line"/>
      <point x="422" y="653" type="line"/>
      <point x="704" y="762" type="line" smooth="yes"/>
      <point x="725" y="769"/>
      <point x="735" y="793"/>
      <point x="727" y="813" type="curve" smooth="yes"/>
      <point x="720" y="834"/>
      <point x="696" y="844"/>
      <point x="676" y="836" type="curve" smooth="yes"/>
      <point x="367" y="717" type="line" smooth="yes"/>
      <point x="352" y="712"/>
      <point x="341" y="695"/>
      <point x="341" y="679" type="curve" smooth="yes"/>
      <point x="350" y="338" type="line" smooth="yes"/>
      <point x="350" y="336"/>
      <point x="350" y="334"/>
      <point x="350" y="333" type="curve" smooth="yes"/>
      <point x="394" y="39" type="line"/>
      <point x="90" y="39" type="line" smooth="yes"/>
      <point x="68" y="39"/>
      <point x="50" y="21"/>
      <point x="50" y="-1" type="curve" smooth="yes"/>
      <point x="50" y="-23"/>
      <point x="68" y="-41"/>
    </contour>
  </outline>
</glyph>
<glyph name="Oslash" format="1">
  <advance width="779"/>
  <unicode hex="00D8"/>
  <outline>
    <contour>
      <point x="234" y="260" type="line"/>
      <point x="135" y="371" type="line"/>
      <point x="226" y="650" type="line"/>
      <point x="519" y="655" type="line"/>
      <point x="523" y="646" type="line"/>
    </contour>
    <contour>
      <point x="464" y="141" type="line"/>
      <point x="340" y="141" type="line"/>
      <point x="289" y="199" type="line"/>
      <point x="560" y="561" type="line"/>
      <point x="637" y="386" type="line"/>
    </contour>
    <contour>
      <point x="122" y="-23" type="curve" smooth="yes"/>
      <point x="240" y="134" type="line"/>
      <point x="293" y="74" type="line" smooth="yes"/>
      <point x="299" y="67"/>
      <point x="313" y="61"/>
      <point x="322" y="61" type="curve" smooth="yes"/>
      <point x="475" y="61" type="line" smooth="yes"/>
      <point x="477" y="61"/>
      <point x="479" y="61"/>
      <point x="480" y="61" type="curve"/>
      <point x="494" y="60"/>
      <point x="509" y="66"/>
      <point x="518" y="78" type="curve" smooth="yes"/>
      <point x="716" y="358" type="line" smooth="yes"/>
      <point x="723" y="368"/>
      <point x="725" y="386"/>
      <point x="720" y="397" type="curve" smooth="yes"/>
      <point x="615" y="635" type="line"/>
      <point x="722" y="777" type="line" smooth="yes"/>
      <point x="735" y="794"/>
      <point x="731" y="820"/>
      <point x="714" y="833" type="curve" smooth="yes"/>
      <point x="697" y="846"/>
      <point x="671" y="842"/>
      <point x="658" y="825" type="curve" smooth="yes"/>
      <point x="578" y="718" type="line"/>
      <point x="570" y="729"/>
      <point x="557" y="736"/>
      <point x="544" y="736" type="curve" smooth="yes"/>
      <point x="196" y="729" type="line" smooth="yes"/>
      <point x="180" y="729"/>
      <point x="163" y="717"/>
      <point x="159" y="702" type="curve" smooth="yes"/>
      <point x="52" y="373" type="line" smooth="yes"/>
      <point x="48" y="361"/>
      <point x="52" y="344"/>
      <point x="60" y="334" type="curve" smooth="yes"/>
      <point x="185" y="195" type="line"/>
      <point x="58" y="25" type="line" smooth="yes"/>
      <point x="45" y="8"/>
      <point x="49" y="-18"/>
      <point x="66" y="-31" type="curve" smooth="yes"/>
      <point x="83" y="-44"/>
      <point x="109" y="-40"/>
    </contour>
  </outline>
</glyph>
<glyph name="Uacute" format="1">
  <advance width="781"/>
  <unicode hex="00DA"/>
  <outline>
    <contour>
      <point x="358" y="906" type="curve" smooth="yes"/>
      <point x="370" y="888"/>
      <point x="395" y="883"/>
      <point x="413" y="895" type="curve" smooth="yes"/>
      <point x="697" y="1084" type="line"/>
      <point x="713" y="1095" type="line" smooth="yes"/>
      <point x="731" y="1107"/>
      <point x="736" y="1132"/>
      <point x="724" y="1150" type="curve" smooth="yes"/>
      <point x="712" y="1168"/>
      <point x="687" y="1173"/>
      <point x="669" y="1161" type="curve" smooth="yes"/>
      <point x="652" y="1150" type="line"/>
      <point x="369" y="961" type="line" smooth="yes"/>
      <point x="351" y="949"/>
      <point x="346" y="924"/>
    </contour>
    <contour>
      <point x="363" y="-39" type="curve" smooth="yes"/>
      <point x="690" y="61" type="line" smooth="yes"/>
      <point x="705" y="66"/>
      <point x="718" y="83"/>
      <point x="718" y="98" type="curve" smooth="yes"/>
      <point x="729" y="449" type="line"/>
      <point x="729" y="799" type="line" smooth="yes"/>
      <point x="729" y="821"/>
      <point x="711" y="839"/>
      <point x="689" y="839" type="curve" smooth="yes"/>
      <point x="667" y="839"/>
      <point x="649" y="821"/>
      <point x="649" y="799" type="curve" smooth="yes"/>
      <point x="649" y="449" type="line"/>
      <point x="639" y="129" type="line"/>
      <point x="361" y="44" type="line"/>
      <point x="130" y="247" type="line"/>
      <point x="130" y="799" type="line" smooth="yes"/>
      <point x="130" y="821"/>
      <point x="112" y="839"/>
      <point x="90" y="839" type="curve" smooth="yes"/>
      <point x="68" y="839"/>
      <point x="50" y="821"/>
      <point x="50" y="799" type="curve" smooth="yes"/>
      <point x="50" y="229" type="line" smooth="yes"/>
      <point x="50" y="219"/>
      <point x="56" y="206"/>
      <point x="64" y="199" type="curve" smooth="yes"/>
      <point x="325" y="-31" type="line" smooth="yes"/>
      <point x="335" y="-39"/>
      <point x="352" y="-43"/>
    </contour>
  </outline>
</glyph>
<glyph name="Ucircumflex" format="1">
  <advance width="781"/>
  <unicode hex="00DB"/>
  <outline>
    <contour>
      <point x="113" y="895" type="curve" smooth="yes"/>
      <point x="376" y="1070" type="line"/>
      <point x="654" y="905" type="line"/>
      <point x="669" y="895" type="line" smooth="yes"/>
      <point x="687" y="883"/>
      <point x="712" y="888"/>
      <point x="724" y="906" type="curve" smooth="yes"/>
      <point x="736" y="924"/>
      <point x="731" y="949"/>
      <point x="713" y="961" type="curve" smooth="yes"/>
      <point x="695" y="974" type="line"/>
      <point x="395" y="1151" type="line" smooth="yes"/>
      <point x="383" y="1158"/>
      <point x="364" y="1158"/>
      <point x="352" y="1150" type="curve" smooth="yes"/>
      <point x="69" y="961" type="line" smooth="yes"/>
      <point x="51" y="949"/>
      <point x="46" y="924"/>
      <point x="58" y="906" type="curve" smooth="yes"/>
      <point x="70" y="888"/>
      <point x="95" y="883"/>
    </contour>
    <contour>
      <point x="363" y="-39" type="curve" smooth="yes"/>
      <point x="690" y="61" type="line" smooth="yes"/>
      <point x="705" y="66"/>
      <point x="718" y="83"/>
      <point x="718" y="98" type="curve" smooth="yes"/>
      <point x="729" y="449" type="line"/>
      <point x="729" y="799" type="line" smooth="yes"/>
      <point x="729" y="821"/>
      <point x="711" y="839"/>
      <point x="689" y="839" type="curve" smooth="yes"/>
      <point x="667" y="839"/>
      <point x="649" y="821"/>
      <point x="649" y="799" type="curve" smooth="yes"/>
      <point x="649" y="449" type="line"/>
      <point x="639" y="129" type="line"/>
      <point x="361" y="44" type="line"/>
      <point x="130" y="247" type="line"/>
      <point x="130" y="799" type="line" smooth="yes"/>
      <point x="130" y="821"/>
      <point x="112" y="839"/>
      <point x="90" y="839" type="curve" smooth="yes"/>
      <point x="68" y="839"/>
      <point x="50" y="821"/>
      <point x="50" y="799" type="curve" smooth="yes"/>
      <point x="50" y="229" type="line" smooth="yes"/>
      <point x="50" y="219"/>
      <point x="56" y="206"/>
      <point x="64" y="199" type="curve" smooth="yes"/>
      <point x="325" y="-31" type="line" smooth="yes"/>
      <point x="335" y="-39"/>
      <point x="352" y="-43"/>
    </contour>
  </outline>
</glyph>
<glyph name="acircumflex" format="1">
  <advance width="780"/>
  <unicode hex="00E2"/>
  <outline>
    <contour>
      <point x="112" y="895" type="curve" smooth="yes"/>
      <point x="375" y="1070" type="line"/>
      <point x="653" y="905" type="line"/>
      <point x="668" y="895" type="line" smooth="yes"/>
      <point x="686" y="883"/>
      <point x="711" y="888"/>
      <point x="723" y="906" type="curve" smooth="yes"/>
      <point x="735" y="924"/>
      <point x="730" y="949"/>
      <point x="712" y="961" type="curve" smooth="yes"/>
      <point x="694" y="974" type="line"/>
      <point x="394" y="1151" type="line" smooth="yes"/>
      <point x="382" y="1158"/>
      <point x="363" y="1158"/>
      <point x="351" y="1150" type="curve" smooth="yes"/>
      <point x="68" y="961" type="line" smooth="yes"/>
      <point x="50" y="949"/>
      <point x="45" y="924"/>
      <point x="57" y="906" type="curve" smooth="yes"/>
      <point x="69" y="888"/>
      <point x="94" y="883"/>
    </contour>
    <contour>
      <point x="690" y="-44" type="curve" smooth="yes"/>
      <point x="712" y="-44"/>
      <point x="730" y="-26"/>
      <point x="730" y="-4" type="curve" smooth="yes"/>
      <point x="730" y="499" type="line" smooth="yes"/>
      <point x="730" y="506"/>
      <point x="727" y="515"/>
      <point x="724" y="520" type="curve" smooth="yes"/>
      <point x="543" y="817" type="line" smooth="yes"/>
      <point x="536" y="828"/>
      <point x="520" y="836"/>
      <point x="506" y="836" type="curve" smooth="yes"/>
      <point x="172" y="816" type="line" smooth="yes"/>
      <point x="155" y="815"/>
      <point x="139" y="802"/>
      <point x="135" y="786" type="curve" smooth="yes"/>
      <point x="51" y="449" type="line" smooth="yes"/>
      <point x="50" y="446"/>
      <point x="50" y="441"/>
      <point x="50" y="438" type="curve" smooth="yes"/>
      <point x="55" y="98" type="line" smooth="yes"/>
      <point x="55" y="59"/>
      <point x="96" y="43"/>
      <point x="123" y="70" type="curve" smooth="yes"/>
      <point x="357" y="306" type="line"/>
      <point x="650" y="306" type="line"/>
      <point x="650" y="-4" type="line" smooth="yes"/>
      <point x="650" y="-26"/>
      <point x="668" y="-44"/>
    </contour>
    <contour>
      <point x="312" y="374" type="curve" smooth="yes"/>
      <point x="133" y="194" type="line"/>
      <point x="130" y="434" type="line"/>
      <point x="206" y="738" type="line"/>
      <point x="487" y="754" type="line"/>
      <point x="650" y="488" type="line"/>
      <point x="650" y="386" type="line"/>
      <point x="340" y="386" type="line" smooth="yes"/>
      <point x="331" y="386"/>
      <point x="318" y="381"/>
    </contour>
  </outline>
</glyph>
<glyph name="ccedilla" format="1">
  <advance width="780"/>
  <unicode hex="00E7"/>
  <outline>
    <contour>
      <point x="636" y="-2" type="line" smooth="yes"/>
      <point x="651" y="-1"/>
      <point x="668" y="11"/>
      <point x="672" y="25" type="curve" smooth="yes"/>
      <point x="728" y="188" type="line" smooth="yes"/>
      <point x="735" y="209"/>
      <point x="723" y="232"/>
      <point x="703" y="239" type="curve" smooth="yes"/>
      <point x="682" y="246"/>
      <point x="659" y="234"/>
      <point x="652" y="214" type="curve" smooth="yes"/>
      <point x="606" y="78" type="line"/>
      <point x="310" y="70" type="line"/>
      <point x="130" y="325" type="line"/>
      <point x="131" y="630" type="line"/>
      <point x="404" y="755" type="line"/>
      <point x="667" y="568" type="line" smooth="yes"/>
      <point x="684" y="556"/>
      <point x="710" y="560"/>
      <point x="723" y="578" type="curve" smooth="yes"/>
      <point x="735" y="595"/>
      <point x="731" y="621"/>
      <point x="713" y="634" type="curve" smooth="yes"/>
      <point x="431" y="834" type="line" smooth="yes"/>
      <point x="421" y="841"/>
      <point x="403" y="843"/>
      <point x="391" y="837" type="curve" smooth="yes"/>
      <point x="75" y="692" type="line" smooth="yes"/>
      <point x="62" y="686"/>
      <point x="51" y="670"/>
      <point x="51" y="656" type="curve" smooth="yes"/>
      <point x="50" y="312" type="line" smooth="yes"/>
      <point x="50" y="305"/>
      <point x="53" y="295"/>
      <point x="57" y="289" type="curve" smooth="yes"/>
      <point x="257" y="6" type="line" smooth="yes"/>
      <point x="264" y="-4"/>
      <point x="279" y="-11"/>
      <point x="291" y="-11" type="curve" smooth="yes"/>
    </contour>
  </outline>
</glyph>
<glyph name="icircumflex" format="1">
  <advance width="784"/>
  <unicode hex="00EE"/>
  <outline>
    <contour>
      <point x="116" y="895" type="curve" smooth="yes"/>
      <point x="379" y="1070" type="line"/>
      <point x="657" y="905" type="line"/>
      <point x="672" y="895" type="line" smooth="yes"/>
      <point x="690" y="883"/>
      <point x="715" y="888"/>
      <point x="727" y="906" type="curve" smooth="yes"/>
      <point x="739" y="924"/>
      <point x="734" y="949"/>
      <point x="716" y="961" type="curve" smooth="yes"/>
      <point x="698" y="974" type="line"/>
      <point x="398" y="1151" type="line" smooth="yes"/>
      <point x="386" y="1158"/>
      <point x="367" y="1158"/>
      <point x="355" y="1150" type="curve" smooth="yes"/>
      <point x="72" y="961" type="line" smooth="yes"/>
      <point x="54" y="949"/>
      <point x="49" y="924"/>
      <point x="61" y="906" type="curve" smooth="yes"/>
      <point x="73" y="888"/>
      <point x="98" y="883"/>
    </contour>
    <contour>
      <point x="90" y="-41" type="curve" smooth="yes"/>
      <point x="440" y="-41" type="line" smooth="yes"/>
      <point x="465" y="-41"/>
      <point x="483" y="-20"/>
      <point x="480" y="5" type="curve" smooth="yes"/>
      <point x="430" y="342" type="line"/>
      <point x="422" y="653" type="line"/>
      <point x="704" y="762" type="line" smooth="yes"/>
      <point x="725" y="769"/>
      <point x="735" y="793"/>
      <point x="727" y="813" type="curve" smooth="yes"/>
      <point x="720" y="834"/>
      <point x="696" y="844"/>
      <point x="676" y="836" type="curve" smooth="yes"/>
      <point x="367" y="717" type="line" smooth="yes"/>
      <point x="352" y="712"/>
      <point x="341" y="695"/>
      <point x="341" y="679" type="curve" smooth="yes"/>
      <point x="350" y="338" type="line" smooth="yes"/>
      <point x="350" y="336"/>
      <point x="350" y="334"/>
      <point x="350" y="333" type="curve" smooth="yes"/>
      <point x="394" y="39" type="line"/>
      <point x="90" y="39" type="line" smooth="yes"/>
      <point x="68" y="39"/>
      <point x="50" y="21"/>
      <point x="50" y="-1" type="curve" smooth="yes"/>
      <point x="50" y="-23"/>
      <point x="68" y="-41"/>
    </contour>
  </outline>
</glyph>
<glyph name="oacute" format="1">
  <advance width="781"/>
  <unicode hex="00F3"/>
  <outline>
    <contour>
      <point x="357" y="906" type="curve" smooth="yes"/>
      <point x="369" y="888"/>
      <point x="394" y="883"/>
      <point x="412" y="895" type="curve" smooth="yes"/>
      <point x="696" y="1084" type="line"/>
      <point x="712" y="1095" type="line" smooth="yes"/>
      <point x="730" y="1107"/>
      <point x="735" y="1132"/>
      <point x="723" y="1150" type="curve" smooth="yes"/>
      <point x="711" y="1168"/>
      <point x="686" y="1173"/>
      <point x="668" y="1161" type="curve" smooth="yes"/>
      <point x="651" y="1150" type="line"/>
      <point x="368" y="961" type="line" smooth="yes"/>
      <point x="350" y="949"/>
      <point x="345" y="924"/>
    </contour>
    <contour>
      <point x="473" y="39" type="line"/>
      <point x="312" y="39" type="line"/>
      <point x="130" y="292" type="line"/>
      <point x="130" y="597" type="line"/>
      <point x="389" y="753" type="line"/>
      <point x="651" y="604" type="line"/>
      <point x="651" y="292" type="line"/>
    </contour>
    <contour>
      <point x="484" y="-41" type="line" smooth="yes"/>
      <point x="486" y="-41"/>
      <point x="488" y="-41"/>
      <point x="489" y="-41" type="curve"/>
      <point x="504" y="-42"/>
      <point x="518" y="-36"/>
      <point x="527" y="-24" type="curve" smooth="yes"/>
      <point x="724" y="256" type="line" smooth="yes"/>
      <point x="728" y="262"/>
      <point x="731" y="272"/>
      <point x="731" y="279" type="curve" smooth="yes"/>
      <point x="731" y="627" type="line" smooth="yes"/>
      <point x="731" y="640"/>
      <point x="722" y="655"/>
      <point x="710" y="662" type="curve" smooth="yes"/>
      <point x="408" y="834" type="line" smooth="yes"/>
      <point x="397" y="840"/>
      <point x="379" y="840"/>
      <point x="368" y="833" type="curve" smooth="yes"/>
      <point x="69" y="654" type="line" smooth="yes"/>
      <point x="59" y="647"/>
      <point x="50" y="632"/>
      <point x="50" y="619" type="curve" smooth="yes"/>
      <point x="50" y="279" type="line" smooth="yes"/>
      <point x="50" y="272"/>
      <point x="53" y="261"/>
      <point x="58" y="256" type="curve" smooth="yes"/>
      <point x="260" y="-24" type="line" smooth="yes"/>
      <point x="266" y="-34"/>
      <point x="281" y="-41"/>
      <point x="292" y="-41" type="curve" smooth="yes"/>
    </contour>
  </outline>
</glyph>
<glyph name="circumflex" format="1">
  <advance width="779"/>
  <unicode hex="02C6"/>
  <outline>
    <contour>
      <point x="112" y="895" type="curve" smooth="yes"/>
      <point x="375" y="1070" type="line"/>
      <point x="653" y="905" type="line"/>
      <point x="668" y="895" type="line" smooth="yes"/>
      <point x="686" y="883"/>
      <point x="711" y="888"/>
      <point x="723" y="906" type="curve" smooth="yes"/>
      <point x="735" y="924"/>
      <point x="730" y="949"/>
      <point x="712" y="961" type="curve" smooth="yes"/>
      <point x="694" y="974" type="line"/>
      <point x="394" y="1151" type="line" smooth="yes"/>
      <point x="382" y="1158"/>
      <point x="363" y="1158"/>
      <point x="351" y="1150" type="curve" smooth="yes"/>
      <point x="68" y="961" type="line" smooth="yes"/>
      <point x="50" y="949"/>
      <point x="45" y="924"/>
      <point x="57" y="906" type="curve" smooth="yes"/>
      <point x="69" y="888"/>
      <point x="94" y="883"/>
    </contour>
  </outline>
</glyph>
<glyph name="tilde" format="1">
  <advance width="780"/>
  <unicode hex="02DC"/>
  <outline>
    <contour>
      <point x="113" y="895" type="curve" smooth="yes"/>
      <point x="383" y="1088" type="line"/>
      <point x="690" y="1088" type="line" smooth="yes"/>
      <point x="712" y="1088"/>
      <point x="730" y="1106"/>
      <point x="730" y="1128" type="curve" smooth="yes"/>
      <point x="730" y="1150"/>
      <point x="712" y="1168"/>
      <point x="690" y="1168" type="curve" smooth="yes"/>
      <point x="370" y="1168" type="line" smooth="yes"/>
      <point x="363" y="1168"/>
      <point x="353" y="1165"/>
      <point x="347" y="1161" type="curve" smooth="yes"/>
      <point x="67" y="961" type="line" smooth="yes"/>
      <point x="49" y="948"/>
      <point x="45" y="922"/>
      <point x="57" y="905" type="curve" smooth="yes"/>
      <point x="70" y="887"/>
      <point x="96" y="883"/>
    </contour>
  </outline>
</glyph>
<glyph name="quoteright" format="1">
  <advance width="279"/>
  <unicode hex="2019"/>
  <outline>
    <contour>
      <point x="208" y="835" type="curve" smooth="yes"/>
      <point x="189" y="844"/>
      <point x="164" y="836"/>
      <point x="154" y="817" type="curve" smooth="yes"/>
      <point x="54" y="617" type="line" smooth="yes"/>
      <point x="45" y="598"/>
      <point x="53" y="573"/>
      <point x="72" y="563" type="curve" smooth="yes"/>
      <point x="91" y="554"/>
      <point x="116" y="562"/>
      <point x="126" y="581" type="curve" smooth="yes"/>
      <point x="226" y="781" type="line" smooth="yes"/>
      <point x="235" y="800"/>
      <point x="227" y="825"/>
    </contour>
  </outline>
</glyph>
<glyph name="quotedblleft" format="1">
  <advance width="385"/>
  <unicode hex="201C"/>
  <outline>
    <contour>
      <point x="178" y="568" type="curve" smooth="yes"/>
      <point x="197" y="559"/>
      <point x="222" y="567"/>
      <point x="232" y="586" type="curve" smooth="yes"/>
      <point x="332" y="786" type="line" smooth="yes"/>
      <point x="341" y="805"/>
      <point x="333" y="830"/>
      <point x="314" y="840" type="curve" smooth="yes"/>
      <point x="295" y="849"/>
      <point x="270" y="841"/>
      <point x="260" y="822" type="curve" smooth="yes"/>
      <point x="160" y="622" type="line" smooth="yes"/>
      <point x="151" y="603"/>
      <point x="159" y="578"/>
    </contour>
    <contour>
      <point x="72" y="568" type="curve" smooth="yes"/>
      <point x="91" y="559"/>
      <point x="116" y="567"/>
      <point x="126" y="586" type="curve" smooth="yes"/>
      <point x="226" y="786" type="line" smooth="yes"/>
      <point x="235" y="805"/>
      <point x="227" y="830"/>
      <point x="208" y="840" type="curve" smooth="yes"/>
      <point x="189" y="849"/>
      <point x="164" y="841"/>
      <point x="154" y="822" type="curve" smooth="yes"/>
      <point x="54" y="622" type="line" smooth="yes"/>
      <point x="45" y="603"/>
      <point x="53" y="578"/>
    </contour>
  </outline>
</glyph>
<glyph name="quotedblright" format="1">
  <advance width="379"/>
  <unicode hex="201D"/>
  <outline>
    <contour>
      <point x="308" y="835" type="curve" smooth="yes"/>
      <point x="289" y="844"/>
      <point x="264" y="836"/>
      <point x="254" y="817" type="curve" smooth="yes"/>
      <point x="154" y="617" type="line" smooth="yes"/>
      <point x="145" y="598"/>
      <point x="153" y="573"/>
      <point x="172" y="563" type="curve" smooth="yes"/>
      <point x="191" y="554"/>
      <point x="216" y="562"/>
      <point x="226" y="581" type="curve" smooth="yes"/>
      <point x="326" y="781" type="line" smooth="yes"/>
      <point x="335" y="800"/>
      <point x="327" y="825"/>
    </contour>
    <contour>
      <point x="208" y="835" type="curve" smooth="yes"/>
      <point x="189" y="844"/>
      <point x="164" y="836"/>
      <point x="154" y="817" type="curve" smooth="yes"/>
      <point x="54" y="617" type="line" smooth="yes"/>
      <point x="45" y="598"/>
      <point x="53" y="573"/>
      <point x="72" y="563" type="curve" smooth="yes"/>
      <point x="91" y="554"/>
      <point x="116" y="562"/>
      <point x="126" y="581" type="curve" smooth="yes"/>
      <point x="226" y="781" type="line" smooth="yes"/>
      <point x="235" y="800"/>
      <point x="227" y="825"/>
    </contour>
  </outline>
</glyph>
